<svg xmlns="http://www.w3.org/2000/svg" xmlns:xlink="http://www.w3.org/1999/xlink" width="118.173" height="104" viewBox="0 0 118.173 104">
  <defs>
    <clipPath id="clip-path">
      <rect id="Rectangle_102" data-name="Rectangle 102" width="118.173" height="104" fill="#f7f7f7"/>
    </clipPath>
  </defs>
  <g id="phote_up" clip-path="url(#clip-path)">
    <path id="Path_1022" data-name="Path 1022" d="M113.961,18.314a14.382,14.382,0,0,0-10.17-4.213H87.059a9.089,9.089,0,0,1-8.053-4.9h0l-.74-1.48A14.415,14.415,0,0,0,65.5,0H51.4A14.314,14.314,0,0,0,38.675,7.72h0L37.9,9.2a9.1,9.1,0,0,1-8.038,4.9H14.384A14.383,14.383,0,0,0,0,28.485V89.617A14.383,14.383,0,0,0,14.384,104H103.72a14.383,14.383,0,0,0,14.454-14.383V28.485a14.382,14.382,0,0,0-4.213-10.171m-1.146,71.3a9.131,9.131,0,0,1-9.1,9.1H14.384a9.13,9.13,0,0,1-9.1-9.1V28.485a9.132,9.132,0,0,1,9.1-9.1h15.37a14.353,14.353,0,0,0,12.762-7.72h0l.775-1.48a8.991,8.991,0,0,1,8.037-4.9h14.1a9.091,9.091,0,0,1,8.073,4.9h0l.74,1.48A14.39,14.39,0,0,0,75.855,14.1H61.587a2.644,2.644,0,0,0,0,5.288h42.131a9.133,9.133,0,0,1,9.1,9.1Z" transform="translate(0 0)" fill="#f7f7f7"/>
    <path id="Path_1023" data-name="Path 1023" d="M130.282,102.082a28.2,28.2,0,1,0,19.943,8.26,28.2,28.2,0,0,0-19.943-8.26m16.2,44.408a22.916,22.916,0,1,1,6.712-16.2,22.916,22.916,0,0,1-6.712,16.2" transform="translate(-71.233 -71.235)" fill="#f7f7f7"/>
    <path id="Path_1024" data-name="Path 1024" d="M175.458,162.238h-7.932v-7.932a2.644,2.644,0,1,0-5.288,0v7.932h-7.932a2.644,2.644,0,0,0,0,5.288h7.932v7.932a2.644,2.644,0,1,0,5.288,0v-7.932h7.932a2.644,2.644,0,0,0,0-5.288" transform="translate(59.051 -174.128) rotate(45)" fill="#f7f7f7"/>
  </g>
</svg>
