<svg xmlns="http://www.w3.org/2000/svg" width="14.012" height="12.61" viewBox="0 0 14.012 12.61">
  <path id="Path_tune-variant" data-name="Path / tune-variant" d="M6.2,10.006a2.8,2.8,0,0,0-2.7,2.1H2v1.4H3.5a2.791,2.791,0,0,0,5.408,0h7.1v-1.4h-7.1a2.8,2.8,0,0,0-2.7-2.1m0,4.2a1.4,1.4,0,1,1,1.4-1.4,1.405,1.405,0,0,1-1.4,1.4M14.512,5.1A2.791,2.791,0,0,0,9.1,5.1H2V6.5H9.1a2.791,2.791,0,0,0,5.408,0h1.5V5.1h-1.5m-2.7,2.1a1.4,1.4,0,1,1,1.4-1.4A1.405,1.405,0,0,1,11.808,7.2Z" transform="translate(-2 -3)" fill="#fff"/>
</svg>
