<?xml version="1.0" standalone="no"?>
<!DOCTYPE svg PUBLIC "-//W3C//DTD SVG 1.1//EN" "http://www.w3.org/Graphics/SVG/1.1/DTD/svg11.dtd" >
<svg xmlns="http://www.w3.org/2000/svg">
<metadata>Generated by IcoMoon</metadata>
<defs>
<font id="icomoon" horiz-adv-x="1024">
<font-face units-per-em="1024" ascent="960" descent="-64" />
<missing-glyph horiz-adv-x="1024" />
<glyph unicode="&#x20;" horiz-adv-x="512" d="" />
<glyph unicode="&#xe900;" glyph-name="acheter" horiz-adv-x="878" d="M365.705 301.705c0 40.404 32.754 73.159 73.159 73.159s73.159-32.754 73.159-73.159c0-40.404-32.754-73.159-73.159-73.159v0c-40.404 0-73.159 32.754-73.159 73.159v0zM37.303-20.289c-0.472-2.203-0.742-4.735-0.742-7.329 0-20.19 16.367-36.557 36.557-36.557 0.014 0 0.028 0 0.042 0h182.828c20.19 0 36.557 16.367 36.557 36.557v0c0 0.029 0 0.063 0 0.097 0 48.622 24.092 91.617 60.99 117.699l0.451 0.303c25.458-5.326 54.712-8.375 84.679-8.375s59.221 3.049 87.469 8.854l-2.791-0.479c37.349-26.384 61.441-69.379 61.441-118.001 0-0.034 0-0.068 0-0.102v0.005c0-20.19 16.367-36.557 36.557-36.557v0h182.874c0.012 0 0.026 0 0.040 0 20.19 0 36.557 16.367 36.557 36.557 0 2.594-0.27 5.126-0.784 7.567l0.042-0.238-54.507 273.719c57.153 73.342 91.634 166.794 91.634 268.3 0 242.232-196.368 438.6-438.6 438.6s-438.6-196.368-438.6-438.6c0-0.208 0-0.417 0-0.625v0.032c0.107-101.381 34.784-194.642 92.876-268.652l-0.715 0.945zM658.295 813.025c89.209-67.142 146.289-172.827 146.289-291.844s-57.080-224.702-145.359-291.173l-0.93-0.671zM724.125 187.995l35.811-178.881h-104.669c-7.009 41.083-24.78 77.153-50.287 106.277l0.213-0.248c45.552 19.548 84.808 44 119.728 73.433l-0.709-0.582zM292.546 856.121c43.061 19.432 93.356 30.754 146.295 30.754s103.233-11.322 148.594-31.676l-2.299 0.922v-669.749c-43.040-19.557-93.337-30.954-146.295-30.954s-103.255 11.398-148.57 31.874l2.275-0.92zM272.534 115.144c-25.282-28.883-43.051-64.949-49.893-104.751l-0.182-1.278h-104.713l35.855 178.881c34.192-28.913 73.457-53.371 115.988-71.69l3.032-1.162zM73.115 521.137c0.118 119.010 57.174 224.669 145.391 291.219l0.926 0.669v-583.688c-89.216 66.993-146.317 172.574-146.317 291.491 0 0.109 0 0.217 0 0.326v-0.017z" />
<glyph unicode="&#xe901;" glyph-name="arrow-left" horiz-adv-x="1755" d="M563.84 938.484c-13.24 13.273-31.549 21.484-51.775 21.484s-38.535-8.212-51.774-21.483l-438.775-438.775c-13.273-13.24-21.484-31.549-21.484-51.775s8.212-38.535 21.483-51.774l438.775-438.775c13.25-13.25 31.556-21.446 51.775-21.446 40.439 0 73.221 32.782 73.221 73.221 0 20.22-8.196 38.525-21.446 51.775v0l-387.096 387.031 387.161 387.031c13.273 13.24 21.484 31.549 21.484 51.775s-8.212 38.535-21.483 51.774l-0.001 0.001zM1755.289 447.967c0 40.388-32.741 73.129-73.129 73.129v0h-1535.707c-40.388 0-73.129-32.741-73.129-73.129s32.741-73.129 73.129-73.129v0h1535.707c40.388 0 73.129 32.741 73.129 73.129v0z" />
<glyph unicode="&#xe902;" glyph-name="arrow-right" horiz-adv-x="1755" d="M1191.449 938.484c13.24 13.273 31.549 21.484 51.775 21.484s38.535-8.212 51.774-21.483l438.775-438.775c13.273-13.24 21.484-31.549 21.484-51.775s-8.212-38.535-21.483-51.774l-438.775-438.775c-13.25-13.25-31.556-21.446-51.775-21.446-40.439 0-73.221 32.782-73.221 73.221 0 20.22 8.196 38.525 21.446 51.775v0l387.096 387.031-387.161 387.031c-13.273 13.24-21.484 31.549-21.484 51.775s8.212 38.535 21.483 51.774l0.001 0.001zM0 447.967c0 40.388 32.741 73.129 73.129 73.129v0h1535.707c40.388 0 73.129-32.741 73.129-73.129s-32.741-73.129-73.129-73.129v0h-1535.707c-40.388 0-73.129 32.741-73.129 73.129v0z" />
<glyph unicode="&#xe903;" glyph-name="bell-outline" d="M426.667 64h170.667c0-47.128-38.205-85.333-85.333-85.333s-85.333 38.205-85.333 85.333v0zM896 149.333v-42.667h-768v42.667l85.333 85.333v256c-0.001 0.274-0.001 0.599-0.001 0.924 0 134.201 89.020 247.61 211.232 284.398l2.103 0.544v12.8c0 47.128 38.205 85.333 85.333 85.333s85.333-38.205 85.333-85.333v0-12.8c124.314-37.332 213.335-150.741 213.335-284.942 0-0.325-0.001-0.65-0.002-0.975v0.050-256l85.333-85.333zM725.333 490.667c0 117.821-95.513 213.333-213.333 213.333s-213.333-95.513-213.333-213.333v0-298.667h426.667z" />
<glyph unicode="&#xe904;" glyph-name="Bottle" horiz-adv-x="377" d="M376.712 364.626c-0.023 74.428-20.974 143.958-57.289 203.030l0.964-1.686c-31.257 50.928-49.77 112.598-49.77 178.592 0 0.004 0 0.009 0 0.013v-0.001 205.755c0 5.341-4.33 9.671-9.671 9.671v0h-156.026c-5.341 0-9.671-4.33-9.671-9.671v0-214.454c0.001-0.3 0.001-0.656 0.001-1.012 0-60.746-15.638-117.839-43.107-167.474l0.903 1.778-5.422-9.752c-29.978-53.908-47.625-118.235-47.625-186.684 0-0.175 0-0.35 0-0.525v0.027-426.562c0-5.341 4.33-9.671 9.671-9.671v0h357.33c5.341 0 9.671 4.33 9.671 9.671v0zM323.705 76.69h-110.505c-5.341 0-9.671 4.33-9.671 9.671v0 254.553c0 5.341 4.33 9.671 9.671 9.671v0h110.505c5.341 0 9.671-4.33 9.671-9.671v0-254.513c0-0.012 0-0.026 0-0.040 0-5.341-4.33-9.671-9.671-9.671 0 0 0 0 0 0v0zM228.414 907.034v-66.157c0-5.341-4.33-9.671-9.671-9.671h-70.527c-5.341 0-9.671 4.33-9.671 9.671v0 66.157c0 5.341 4.33 9.671 9.671 9.671v0h70.487c5.341 0 9.671-4.33 9.671-9.671v0zM52.966-20.704c0 0 0 0 0 0-5.313 0-9.625 4.284-9.67 9.585v384.404c-0.001 0.3-0.001 0.656-0.001 1.012 0 60.746 15.638 117.839 43.107 167.474l-0.903-1.778 5.422 9.752c29.978 53.908 47.626 118.235 47.626 186.685 0 0.203 0 0.407 0 0.61v-0.031 41.191c0 5.341 4.33 9.671 9.671 9.671v0h69.435c5.341 0 9.671-4.33 9.671-9.671v0-33.625c0.009-74.423 20.947-143.954 57.248-203.031l-0.964 1.687c24.456-39.717 41.359-86.657 47.461-136.928l0.164-1.658c0.042-0.34 0.067-0.734 0.067-1.133 0-5.341-4.33-9.671-9.671-9.671-0.009 0-0.018 0-0.028 0h-151.655c-5.341 0-9.671-4.33-9.671-9.671v0-339.89c0-5.341 4.33-9.671 9.671-9.671v0h153.76c5.341 0 9.671-4.33 9.671-9.671v-36.053c-0.046-5.306-4.358-9.59-9.67-9.59 0 0 0 0 0 0v0z" />
<glyph unicode="&#xe905;" glyph-name="calendar-outline" d="M810.667 789.333h-42.667v85.333h-85.333v-85.333h-341.333v85.333h-85.333v-85.333h-42.667c-47.128 0-85.333-38.205-85.333-85.333v0-597.333c0-47.128 38.205-85.333 85.333-85.333v0h597.333c47.128 0 85.333 38.205 85.333 85.333v0 597.333c0 47.128-38.205 85.333-85.333 85.333v0zM810.667 106.667h-597.333v426.667h597.333v-426.667zM810.667 618.667h-597.333v85.333h597.333v-85.333zM512 405.333h213.333v-213.333h-213.333z" />
<glyph unicode="&#xe906;" glyph-name="chat" horiz-adv-x="1293" d="M835.376 960c-253.028-0.013-458.142-205.135-458.142-458.165 0-165.207 87.44-309.99 218.564-390.597l1.988-1.137c3.99-2.462 8.826-3.921 14.002-3.921 14.891 0 26.963 12.072 26.963 26.963 0 9.715-5.138 18.229-12.844 22.975l-0.117 0.067c-117.563 72.112-194.801 199.928-194.801 345.784 0 223.286 181.009 404.294 404.294 404.294s404.294-181.009 404.294-404.294c0-105.035-40.054-200.715-105.721-272.599l0.282 0.313c-4.376-4.77-7.066-11.15-7.090-18.157v-112.13l-101.786 36.43c-2.705 0.997-5.829 1.573-9.088 1.573-4.106 0-7.998-0.915-11.484-2.553l0.165 0.070c-46.050-21.867-99.872-35.338-156.655-37.007l-0.585-0.014c-14.779-0.148-26.703-12.163-26.703-26.964 0-14.892 12.073-26.965 26.965-26.965 0.477 0 0.952 0.012 1.423 0.037l-0.066-0.003c61.138 1.81 118.642 15.416 170.951 38.605l-2.9-1.148 97.118-34.74c4.958-1.829 10.685-2.886 16.658-2.886 10.71 0 20.625 3.4 28.726 9.181l-0.151-0.102c13.015 9.291 21.399 24.343 21.399 41.353 0 0.001 0 0.003 0 0.004v0 107.008c69.902 79.987 112.532 185.366 112.532 300.701 0 252.959-205.064 458.023-458.023 458.023-0.064 0-0.128 0-0.192 0h0.009zM702.183 104.701c-68.659-70.851-164.693-114.826-270.998-114.826-57.381 0-111.77 12.813-160.461 35.734l2.303-0.974c-3.32 1.569-7.211 2.485-11.317 2.485-3.259 0-6.384-0.577-9.277-1.635l0.188 0.060-93.349-33.357v102.719c-0.018 7.013-2.709 13.394-7.107 18.181l0.018-0.019c-61.012 66.791-98.387 156.078-98.387 254.095 0 186.821 135.779 341.928 314.037 372.025l2.219 0.31c13.198 1.887 23.231 13.114 23.231 26.685 0 14.879-12.062 26.941-26.941 26.941-1.738 0-3.438-0.165-5.085-0.479l0.168 0.027c-206.243-34.743-361.407-211.993-361.407-425.484 0-108.302 39.931-207.278 105.873-283.008l-0.443 0.519v-99.659c0-0.018 0-0.039 0-0.060 0-16.504 8.14-31.107 20.623-40.014l0.15-0.102c7.75-5.494 17.399-8.782 27.817-8.782 5.785 0 11.334 1.014 16.477 2.874l-0.337-0.107 90.442 32.329c50.285-22.245 108.929-35.196 170.599-35.196 121.469 0 231.203 50.242 309.555 131.079l0.108 0.112c4.71 4.846 7.613 11.469 7.613 18.77 0 14.881-12.064 26.945-26.945 26.945-7.58 0-14.429-3.13-19.325-8.168l-0.006-0.006zM875.8 501.906c0-22.325-18.098-40.424-40.424-40.424s-40.424 18.098-40.424 40.424c0 22.325 18.098 40.424 40.424 40.424v0c0.003 0 0.008 0 0.012 0 22.319 0 40.412-18.093 40.412-40.412 0-0.004 0-0.008 0-0.012v0.001zM687.177 501.906c0-22.325-18.098-40.424-40.424-40.424s-40.424 18.098-40.424 40.424c0 22.325 18.098 40.424 40.424 40.424v0c22.325 0 40.424-18.098 40.424-40.424v0zM1064.447 501.906c0-22.325-18.098-40.424-40.424-40.424s-40.424 18.098-40.424 40.424c0 22.325 18.098 40.424 40.424 40.424v0c22.325 0 40.424-18.098 40.424-40.424v0z" />
<glyph unicode="&#xe907;" glyph-name="envelop" horiz-adv-x="1412" d="M1180.763 960c63.874-0.052 121.673-26.017 163.46-67.948l0.006-0.006c41.651-41.358 67.433-98.65 67.433-161.964 0-0.513-0.002-1.026-0.005-1.538v0.079-561.64c0-0.013 0-0.028 0-0.044 0-127.617-103.454-231.070-231.070-231.070-0.015 0-0.031 0-0.046 0h-949.384c-127.708 0.199-231.158 103.773-231.158 231.508v0 561.246c0.075 127.663 103.471 231.153 231.093 231.377h0.022zM706.706 415.797l630.909 364-3.198 8.281c-24.588 61.938-83.919 104.97-153.323 105.151h-949.716c-0.033 0-0.071 0-0.109 0-30.879 0-59.77-8.517-84.45-23.329l0.745 0.415c-21.84-12.949-39.854-30.123-53.383-50.528l-0.375-0.602-5.74-8.763 8.763-5.652 609.922-388.929zM66.464 178.593l424.068 296.221-424.067 270.502v-566.723zM1345.457 181.178v526.677l-15.597-8.982-412.72-238.431 14.152-9.245 414.165-270.020zM231.377 2.99h951.358c65.787 0.953 122.158 40.293 147.799 96.583l0.421 1.032 3.549 8.062-7.361 4.819-474.715 309.671-129.512-74.964c-4.785-2.711-10.501-4.329-16.59-4.381h-0.015c-0.003 0-0.006 0-0.009 0-6.691 0-12.928 1.943-18.178 5.295l0.136-0.081-1.183 0.701-135.645 86.399-472.831-330.526 3.768-7.93c13.040-26.897 32.14-49.059 55.617-65.358l0.551-0.362c25.938-18.018 58.093-28.785 92.763-28.785 0.012 0 0.023 0 0.035 0h-0.002z" />
<glyph unicode="&#xe908;" glyph-name="geo" horiz-adv-x="636" d="M529.752 748.117c0-117.020-94.863-211.883-211.883-211.883s-211.883 94.863-211.883 211.883c0 117.020 94.863 211.883 211.883 211.883v0c117.020 0 211.883-94.863 211.883-211.883v0zM282.54 748.117h70.613v-635.606c0-19.499-15.807-35.307-35.307-35.307s-35.307 15.807-35.307 35.307v0zM211.137 176.365c0.528-2.282 0.831-4.902 0.831-7.593 0-16.841-11.857-30.912-27.678-34.321l-0.231-0.042c-34.176-6.502-64.622-18.093-92.188-34.097l1.388 0.744c-21.329-13.561-22.601-22.645-22.601-23.962s0.351-6.012 10.313-14.834c14.083-11.369 30.519-20.542 48.375-26.654l1.129-0.336c52.779-18.339 113.614-28.931 176.922-28.931 3.667 0 7.326 0.036 10.976 0.106l-0.547-0.008c3.14-0.064 6.841-0.1 10.551-0.1 63.266 0 124.058 10.593 180.699 30.101l-3.899-1.168c18.978 6.49 35.408 15.659 49.82 27.236l-0.317-0.246c9.874 8.777 10.313 13.912 10.313 14.834s-1.273 10.401-22.601 23.962c-26.177 15.285-56.626 26.879-88.995 33.066l-1.806 0.287c-16.017 3.564-27.814 17.652-27.814 34.495 0 19.494 15.803 35.297 35.297 35.297 2.651 0 5.234-0.292 7.718-0.846l-0.235 0.044c42.848-8.367 80.963-23.228 115.354-43.695l-1.644 0.906c30.978-16.268 52.417-47.024 55.36-83.015l0.024-0.369c-1.070-27.377-14.074-51.514-33.924-67.492l-0.176-0.137c-20.28-16.988-44.037-30.66-69.946-39.758l-1.588-0.486c-60.098-21.197-129.398-33.443-201.559-33.443-3.723 0-7.438 0.033-11.145 0.098l0.557-0.008c-3.17-0.058-6.907-0.091-10.653-0.091-72.132 0-141.411 12.215-205.881 34.688l4.388-1.331c-27.494 9.647-51.245 23.343-71.893 40.623l0.358-0.292c-20.012 16.125-33.011 40.257-34.094 67.453l-0.006 0.176c2.966 36.339 24.366 67.083 54.735 83.113l0.562 0.271c32.768 19.611 70.92 34.478 111.551 42.423l2.247 0.366c2.307 0.54 4.955 0.849 7.676 0.849 16.847 0 30.923-11.866 34.325-27.697l0.042-0.231z" />
<glyph unicode="&#xe909;" glyph-name="heart-outline" d="M503.765 168.533l-4.267-4.267-4.693 4.267c-202.667 183.893-336.64 305.493-336.64 428.8-0.027 1.055-0.043 2.296-0.043 3.542 0 80.542 65.292 145.835 145.835 145.835 1.245 0 2.487-0.016 3.725-0.047l-0.183 0.004c67.839-0.539 126.023-41.321 151.897-99.625l0.423-1.068h79.36c26.297 59.372 84.481 100.155 152.251 100.693h0.069c1.055 0.027 2.296 0.043 3.542 0.043 80.542 0 145.835-65.292 145.835-145.835 0-1.245-0.016-2.487-0.047-3.725l0.004 0.183c0-123.307-133.973-244.907-337.067-428.8zM691.499 832c-76.614-0.644-145.132-34.766-191.732-88.431l-0.268-0.316c-46.868 53.981-115.386 88.103-191.888 88.746l-0.112 0.001c-0.765 0.009-1.669 0.014-2.574 0.014-128.189 0-232.107-103.918-232.107-232.107 0-0.905 0.005-1.809 0.016-2.712l-0.001 0.138c0-160.853 145.067-292.693 364.8-491.947l61.867-56.32 61.867 56.32c219.733 199.253 364.8 331.093 364.8 491.947 0.009 0.765 0.014 1.669 0.014 2.574 0 128.189-103.918 232.107-232.107 232.107-0.905 0-1.809-0.005-2.712-0.016l0.138 0.001z" />
<glyph unicode="&#xe90a;" glyph-name="heart-plus-outline" d="M540.587 75.093l-28.587-26.027-61.867 56.32c-219.733 199.253-364.8 331.093-364.8 491.947-0.009 0.765-0.014 1.669-0.014 2.574 0 128.189 103.918 232.107 232.107 232.107 0.905 0 1.809-0.005 2.712-0.016l-0.138 0.001c76.614-0.644 145.132-34.766 191.732-88.431l0.268-0.316c46.868 53.981 115.386 88.103 191.888 88.746l0.112 0.001c0.765 0.009 1.669 0.014 2.574 0.014 128.189 0 232.107-103.918 232.107-232.107 0-0.905-0.005-1.809-0.016-2.712l0.001 0.138c-1.927-65.992-23.701-126.542-59.525-176.302l0.645 0.942c-25.217 12.479-54.563 21.111-85.536 24.232l-1.078 0.088c34.444 40.833 56.579 93.052 60.124 150.303l0.036 0.737c0.027 1.055 0.043 2.296 0.043 3.542 0 80.542-65.292 145.835-145.835 145.835-1.245 0-2.487-0.016-3.725-0.047l0.183 0.004c-67.839-0.539-126.023-41.321-151.897-99.625l-0.423-1.068h-79.36c-26.297 59.372-84.481 100.155-152.251 100.693h-0.069c-1.055 0.027-2.296 0.043-3.542 0.043-80.542 0-145.835-65.292-145.835-145.835 0-1.245 0.016-2.487 0.047-3.725l-0.004 0.183c0-123.307 133.973-244.907 336.64-428.8l4.693-4.267 1.707 1.707c3.644-33.725 13.173-64.493 27.565-92.338l-0.685 1.458zM725.333 362.667v-128h-128v-85.333h128v-128h85.333v128h128v85.333h-128v128z" />
<glyph unicode="&#xe90b;" glyph-name="MDI---linkedin" d="M810.667 832c47.128 0 85.333-38.205 85.333-85.333v0-597.333c0-47.128-38.205-85.333-85.333-85.333v0h-597.333c-47.128 0-85.333 38.205-85.333 85.333v0 597.333c0 47.128 38.205 85.333 85.333 85.333v0h597.333zM789.333 170.667v226.133c0 76.819-62.274 139.093-139.093 139.093v0c-41.303-1.466-77.29-22.96-98.704-55.016l-0.283-0.45v47.36h-119.040v-357.12h119.040v210.347c-0.136 1.511-0.213 3.268-0.213 5.044 0 32.99 26.744 59.733 59.733 59.733s59.733-26.744 59.733-59.733c0-1.776-0.077-3.533-0.229-5.269l0.016 0.225v-210.347h119.040zM293.547 594.773c39.614 0.122 71.68 32.263 71.68 71.893 0 39.706-32.188 71.893-71.893 71.893s-71.893-32.188-71.893-71.893c0-0.075 0-0.15 0-0.225v0.012c0 0 0-0.001 0-0.001 0-39.588 32.092-71.68 71.68-71.68 0.15 0 0.3 0 0.45 0.001h-0.023zM352.853 170.667v357.12h-118.187v-357.12z" />
<glyph unicode="&#xe90c;" glyph-name="person-circle" d="M705.422 576c0-106.824-86.598-193.422-193.422-193.422s-193.422 86.598-193.422 193.422c0 106.824 86.598 193.422 193.422 193.422s193.422-86.598 193.422-193.422zM512 960c-281.6 0-512-230.4-512-512s230.4-512 512-512 512 230.4 512 512-230.4 512-512 512zM861.867 169.244c0 0 0 0 0 0s0 0 0 0c-45.511 73.956-145.067 150.756-349.867 150.756s-304.356-79.644-349.867-150.756c-62.578 76.8-99.556 173.511-99.556 278.756 0 247.467 199.111 449.422 449.422 449.422s449.422-199.111 449.422-449.422c0-105.244-36.978-201.956-99.556-278.756z" />
<glyph unicode="&#xe90d;" glyph-name="search" d="M683.513 276.534c11.073 11.138 26.406 18.032 43.348 18.032s32.275-6.894 43.345-18.029l235.88-235.88c11.102-11.090 17.969-26.417 17.969-43.348 0-33.839-27.432-61.271-61.271-61.271-16.908 0-32.216 6.848-43.302 17.923l-235.923 235.876c-11.138 11.073-18.032 26.406-18.032 43.348s6.894 32.275 18.029 43.345l0.003 0.003zM423.14 178.836c197.731 0 358.024 160.293 358.024 358.024s-160.293 358.024-358.024 358.024c-197.731 0-358.024-160.293-358.024-358.024v0c0-197.731 160.293-358.024 358.024-358.024v0zM846.281 536.86c0-233.694-189.446-423.14-423.14-423.14s-423.14 189.446-423.14 423.14c0 233.694 189.446 423.14 423.14 423.14v0c233.694 0 423.14-189.446 423.14-423.14v0z" />
<glyph unicode="&#xe90e;" glyph-name="transactions" horiz-adv-x="1368" d="M262.354 65.272c-25.058 0.018-45.365 20.335-45.365 45.396 0 25.071 20.324 45.396 45.396 45.396s45.396-20.324 45.396-45.396v0c-0.035-25.068-20.356-45.378-45.425-45.396h-0.002zM723.565 665.312h342.327c17.229 0 31.196-13.967 31.196-31.196s-13.967-31.196-31.196-31.196v0h-342.327c-17.229 0-31.196 13.967-31.196 31.196s13.967 31.196 31.196 31.196v0zM800.525 540.528h342.327c17.229 0 31.196-13.967 31.196-31.196s-13.967-31.196-31.196-31.196v0h-342.327c-17.238 0-31.211 13.974-31.211 31.211s13.974 31.211 31.211 31.211v0zM0 470.206l111.937 263.553c15.071 34.091 48.592 57.449 87.568 57.449 0.917 0 1.832-0.013 2.743-0.039l-0.134 0.003h259.527v85.013c0.052 46.268 37.546 83.762 83.809 83.815h738.63c46.268-0.052 83.762-37.546 83.815-83.809v-713.058c-0.052-46.268-37.546-83.762-83.809-83.815h-92.979c-15.283-82.158-86.409-143.535-171.87-143.535s-156.587 61.377-171.703 142.455l-0.167 1.080h-413.141c-15.247-82.184-86.38-143.592-171.855-143.592s-156.609 61.408-171.689 142.514l-0.167 1.078h-19.086c-39.041 0-70.691 31.649-70.691 70.691v0 304.123c0 0.061 0 0.133 0 0.205 0 5.777 0.571 11.421 1.659 16.878l-0.091-0.547zM262.354 222.973c-61.964-0.035-112.183-50.275-112.183-112.244 0-61.991 50.254-112.244 112.244-112.244 61.969 0 112.209 50.218 112.244 112.18v0.003c-0.070 61.997-50.309 112.236-112.299 112.306h-0.007zM363.504 512.098v128.657h-223.229l-54.647-128.657zM85.321 270.951h-22.221v-120.82c0.017-4.57 3.726-8.268 8.298-8.268 0.011 0 0.022 0 0.032 0h19.146c15.247 82.184 86.38 143.592 171.855 143.592s156.609-61.408 171.689-142.514l0.167-1.078h27.416v586.917h-259.588c-0.607 0.039-1.316 0.061-2.030 0.061-13.46 0-25.083-7.866-30.523-19.251l-0.088-0.204-2.643-6.147h227.9c17.222-0.017 31.179-13.974 31.196-31.194v-191.020c0-17.235-13.963-31.209-31.194-31.227h-331.633v-116.394h22.221c17.229 0 31.196-13.967 31.196-31.196s-13.967-31.196-31.196-31.196v0zM1019.236 222.973c-62.025 0-112.306-50.281-112.306-112.306s50.281-112.306 112.306-112.306c62.025 0 112.306 50.281 112.306 112.306v0c-0.070 61.997-50.309 112.236-112.299 112.306h-0.007zM524.002 876.216v-734.353h323.364c15.283 82.158 86.409 143.535 171.87 143.535s156.587-61.377 171.703-142.455l0.167-1.080h92.974c11.882 0 21.515 9.632 21.515 21.515v0 712.838c0 11.882-9.632 21.515-21.515 21.515v0h-738.656c-11.882 0-21.515-9.632-21.515-21.515v0zM822.439 758.9c0.017 17.222 13.974 31.179 31.194 31.196h342.482c17.229 0 31.196-13.967 31.196-31.196s-13.967-31.196-31.196-31.196v0h-342.327c-0.037 0-0.080 0-0.123 0-17.235 0-31.209 13.963-31.227 31.195v0.002zM1019.236 65.272c-25.071 0-45.396 20.324-45.396 45.396s20.324 45.396 45.396 45.396c25.071 0 45.396-20.324 45.396-45.396v0c-0.052-25.050-20.345-45.343-45.391-45.396h-0.005z" />
<glyph unicode="&#xe90f;" glyph-name="Vin" horiz-adv-x="606" d="M606.299 447.983c-0.233 47.583-35.742 86.801-81.701 92.857l-0.477 0.051c7.809 13.239 12.464 29.149 12.573 46.138v0.031c0.001 0.156 0.001 0.34 0.001 0.524 0 51.849-42.032 93.88-93.88 93.88-27.798 0-52.774-12.082-69.964-31.281l-0.079-0.089c-11.786 12.971-27.041 22.592-44.302 27.403l-0.66 0.157v188.733c0.685 24.298 20.545 43.734 44.945 43.734s44.261-19.436 44.944-43.671l0.001-0.063v-70.41c0-13.629 11.048-24.677 24.677-24.677s24.677 11.048 24.677 24.677v0 70.41c-0.998 51.319-42.835 92.538-94.299 92.538s-93.301-41.219-94.298-92.445l-0.001-0.093v-188.565c-17.908-4.975-33.151-14.594-44.859-27.483l-0.069-0.077c-17.243 18.979-42.021 30.846-69.572 30.846-51.849 0-93.88-42.032-93.88-93.88 0-16.971 4.503-32.89 12.379-46.627l-0.242 0.458c-46.303-6.276-81.615-45.552-81.615-93.076s35.312-86.8 81.129-93.022l0.486-0.054c-7.809-13.239-12.464-29.149-12.573-46.138v-0.031c0.146-47.653 35.685-86.961 81.701-93.024l0.477-0.051c-7.812-13.238-12.468-29.149-12.573-46.139v-0.030c0.154-47.599 35.62-86.867 81.564-92.99l0.481-0.052c-7.809-13.239-12.464-29.149-12.573-46.138v-0.031c0.998-51.319 42.835-92.538 94.299-92.538s93.301 41.219 94.298 92.445l0.001 0.093c-0.109 17.020-4.764 32.93-12.811 46.606l0.238-0.437c46.508 6.099 82.064 45.413 82.212 93.060v0.015c-0.107 17.020-4.763 32.931-12.811 46.605l0.237-0.436c46.51 5.668 82.187 44.916 82.187 92.496 0 17.219-4.672 33.347-12.819 47.185l0.237-0.436c46.497 6.097 82.047 45.393 82.212 93.025v0.017zM442.378 632.19c0.010 0 0.022 0 0.034 0 24.832 0 44.962-20.13 44.962-44.962s-20.13-44.962-44.962-44.962c-24.832 0-44.962 20.13-44.962 44.962 0 0.012 0 0.024 0 0.035v-0.002c0.038 24.798 20.13 44.89 44.925 44.928h0.004zM372.772 492.945c24.799-0.019 44.895-20.127 44.895-44.928 0-24.813-20.115-44.928-44.928-44.928s-44.928 20.115-44.928 44.928v0c0.038 24.81 20.15 44.909 44.96 44.928h0.002zM348.095 308.772c0-24.832-20.13-44.962-44.962-44.962s-44.962 20.13-44.962 44.962c0 24.832 20.13 44.962 44.962 44.962v0c24.824-0.019 44.943-20.138 44.962-44.96v-0.002zM303.133 632.19c0.010 0 0.022 0 0.034 0 24.832 0 44.962-20.13 44.962-44.962s-20.13-44.962-44.962-44.962c-24.832 0-44.962 20.13-44.962 44.962 0 0.012 0 0.024 0 0.035v-0.002c0.038 24.798 20.13 44.89 44.925 44.928h0.004zM278.456 448.017c0-24.813-20.115-44.928-44.928-44.928s-44.928 20.115-44.928 44.928c0 24.813 20.115 44.928 44.928 44.928v0c24.798-0.038 44.89-20.13 44.928-44.925v-0.004zM163.922 632.19c0.010 0 0.022 0 0.034 0 24.832 0 44.962-20.13 44.962-44.962s-20.13-44.962-44.962-44.962c-24.832 0-44.962 20.13-44.962 44.962 0 0.012 0 0.024 0 0.035v-0.002c0.038 24.798 20.13 44.89 44.925 44.928h0.004zM49.354 448.017c0 24.813 20.115 44.928 44.928 44.928s44.928-20.115 44.928-44.928c0-24.813-20.115-44.928-44.928-44.928v0c-24.798 0.038-44.89 20.13-44.928 44.925v0.004zM118.96 308.772c0 24.813 20.115 44.928 44.928 44.928s44.928-20.115 44.928-44.928c0-24.813-20.115-44.928-44.928-44.928v0c-24.798 0.038-44.89 20.13-44.928 44.925v0.004zM233.527 124.599c-24.813 0-44.928 20.115-44.928 44.928s20.115 44.928 44.928 44.928c24.813 0 44.928-20.115 44.928-44.928v0c-0.038-24.798-20.13-44.89-44.925-44.928h-0.004zM303.133-14.646c-24.832 0-44.962 20.13-44.962 44.962s20.13 44.962 44.962 44.962c24.832 0 44.962-20.13 44.962-44.962 0-0.012 0-0.024 0-0.035v0.002c-0.038-24.81-20.15-44.909-44.96-44.928h-0.002zM372.772 124.599c-24.813 0-44.928 20.115-44.928 44.928s20.115 44.928 44.928 44.928c24.813 0 44.928-20.115 44.928-44.928v0c-0.038-24.798-20.13-44.89-44.925-44.928h-0.004zM442.378 263.844c-0.010 0-0.022 0-0.034 0-24.832 0-44.962 20.13-44.962 44.962s20.13 44.962 44.962 44.962c24.832 0 44.962-20.13 44.962-44.962 0-0.012 0-0.024 0-0.035v0.002c-0.038-24.798-20.13-44.89-44.925-44.928h-0.004zM511.983 403.088c-24.813 0-44.928 20.115-44.928 44.928s20.115 44.928 44.928 44.928c24.813 0 44.928-20.115 44.928-44.928v0c-0.038-24.798-20.13-44.89-44.925-44.928h-0.004z" />
<glyph unicode="&#xe910;" glyph-name="view-dashboard-outline" d="M810.667 746.667v-85.333h-170.667v85.333h170.667zM384 746.667v-256h-170.667v256h170.667zM810.667 405.333v-256h-170.667v256h170.667zM384 234.667v-85.333h-170.667v85.333h170.667zM896 832h-341.333v-256h341.333v256zM469.333 832h-341.333v-426.667h341.333v426.667zM896 490.667h-341.333v-426.667h341.333v426.667zM469.333 320h-341.333v-256h341.333z" />
<glyph unicode="&#xe911;" glyph-name="arrow-collapse-right" d="M515.413 785.92l337.92-337.92-337.92-337.92-60.16 60.587 234.667 234.667h-604.587v85.333h604.587l-234.667 234.667 60.16 60.587zM853.333 448v-426.667h85.333v853.333h-85.333z" />
<glyph unicode="&#xe912;" glyph-name="shield-account-outline" d="M512 917.333l-384-170.667v-256c0-236.8 163.84-458.24 384-512 220.16 53.76 384 275.2 384 512v256l-384 170.667zM512 824.32l298.667-133.12v-209.92c-1.123-77.85-22.359-150.507-58.726-213.308l1.126 2.108c-68.434 43.54-151.537 69.9-240.704 71.249l-0.362 0.004c-89.529-1.353-172.632-27.714-242.967-72.381l1.9 1.128c-35.241 60.693-56.477 133.35-57.596 210.875l-0.004 0.325v209.92l298.667 133.12zM512 704c-82.475 0-149.333-66.859-149.333-149.333s66.859-149.333 149.333-149.333c82.475 0 149.333 66.859 149.333 149.333v0c0 82.475-66.859 149.333-149.333 149.333v0zM512 618.667c35.346 0 64-28.654 64-64s-28.654-64-64-64c-35.346 0-64 28.654-64 64v0c0 35.346 28.654 64 64 64v0zM512 256c71.832-0.342 138.627-21.615 194.681-58.026l-1.401 0.853c-48.207-62.988-114.252-110.128-190.56-134.090l-2.72-0.736c-79.028 24.698-145.073 71.838-192.603 133.906l-0.677 0.92c54.673 35.501 121.452 56.763 193.172 57.173h0.108z" />
<glyph unicode="&#xe913;" glyph-name="account-outline" d="M512 806.656c98.859-0.146 178.944-80.32 178.944-179.2 0-98.969-80.231-179.2-179.2-179.2s-179.2 80.231-179.2 179.2v0c0 98.969 80.231 179.2 179.2 179.2v0zM511.744 717.056c-49.485 0-89.6-40.115-89.6-89.6s40.115-89.6 89.6-89.6c49.485 0 89.6 40.115 89.6 89.6v0c0 49.485-40.115 89.6-89.6 89.6v0zM511.744 403.232c119.712 0 358.656-59.616 358.656-179.2v-134.4h-717.056v134.4c0 119.712 238.944 179.2 358.656 179.2zM512 318.048c-133.152 0-273.472-65.44-273.472-94.144v-49.312h546.944v49.28c0 28.672-140.32 94.144-273.472 94.144z" />
<glyph unicode="&#xe914;" glyph-name="check" horiz-adv-x="1336" d="M1336.316 852.331l-916.331-916.331-419.985 419.985 107.669 107.669 312.316-311.553 808.662 807.899z" />
<glyph unicode="&#xe915;" glyph-name="calendar-cursor" d="M960.61 20.846l-68.754-68.754-157.501 154.575-51.688-120.442-97.524 339.87 341.333-97.524-123.368-50.225 157.501-157.501zM828.952 618.667h-682.667v-536.381h410.088l27.307-97.524h-437.394c-53.861 0-97.524 43.663-97.524 97.524v0 682.667c0 53.861 43.663 97.524 97.524 97.524v0h48.762v97.524h97.524v-97.524h390.095v97.524h97.524v-97.524h48.762c53.794-0.166 97.358-43.73 97.524-97.508v-436.435l-97.524 29.257v260.876zM487.619 521.143v-243.81h-243.81v243.81z" />
<glyph unicode="&#xe916;" glyph-name="calendar-today" d="M256 499.2h256v-256h-256zM870.4 38.4h-716.8v563.2h716.8zM870.4 857.6h-51.2v102.4h-102.4v-102.4h-409.6v102.4h-102.4v-102.4h-51.2c-56.554 0-102.4-45.846-102.4-102.4v0-716.8c0-56.554 45.846-102.4 102.4-102.4v0h716.8c56.554 0 102.4 45.846 102.4 102.4v0 716.8c0 56.554-45.846 102.4-102.4 102.4v0z" />
<glyph unicode="&#xe917;" glyph-name="chevron-up" d="M120.32 114.347l391.68 390.827 391.68-390.827 120.32 120.32-512 512-512-512z" />
<glyph unicode="&#xe918;" glyph-name="close-circle-outline" d="M512 110.99c-186.101 0.033-336.953 150.904-336.953 337.010 0 186.125 150.884 337.010 337.010 337.010 186.106 0 336.978-150.852 337.010-336.95v-0.003c-0.227-186.066-151.001-336.84-337.045-337.067h-0.021zM512 869.319c-232.657 0-421.262-188.606-421.262-421.262s188.606-421.262 421.262-421.262c232.657 0 421.262 188.606 421.262 421.262v0c0 0.085 0 0.185 0 0.285 0 232.5-188.478 420.978-420.978 420.978-0.1 0-0.2 0-0.301 0h0.016zM621.113 616.562l-109.113-109.113-109.113 109.113-59.392-59.392 109.113-109.113-109.113-109.113 59.392-59.392 109.113 109.056 109.113-109.113 59.392 59.392-109.056 109.17 109.113 109.113z" />
<glyph unicode="&#xe919;" glyph-name="lead-pencil" d="M697.173 832c-17.795-0.054-33.908-7.21-45.662-18.782l-90.445-90.445 226.133-226.56 90.453 89.6c11.822 11.62 19.147 27.781 19.147 45.653s-7.326 34.033-19.138 45.644l-0.009 0.009-135.253 136.107c-11.632 11.488-27.582 18.629-45.199 18.773h-0.028zM530.773 692.48l-345.6-346.027 109.227-11.947 7.68-97.707 97.28-7.253 12.373-109.227 345.6 346.027zM160 306.773l-74.667-285.44 285.867 76.373-10.24 92.16-98.56 7.253-7.68 98.987z" />
<glyph unicode="&#xe91a;" glyph-name="menu-down" d="M0 704l512-512 512 512z" />
<glyph unicode="&#xe91b;" glyph-name="trash-can-outline" d="M384 832v-42.667h-213.333v-85.333h42.667v-554.667c0-47.128 38.205-85.333 85.333-85.333v0h426.667c47.128 0 85.333 38.205 85.333 85.333v0 554.667h42.667v85.333h-213.333v42.667h-256zM298.667 704h426.667v-554.667h-426.667v554.667zM384 618.667v-384h85.333v384h-85.333zM554.667 618.667v-384h85.333v384z" />
<glyph unicode="&#xe91c;" glyph-name="bell-plus-outline" horiz-adv-x="926" d="M438.857 960c-53.794-0.166-97.358-43.73-97.524-97.508v-14.157c-142.168-43.365-243.81-173.365-243.81-327.105 0-0.031 0-0.062 0-0.092v0.005-292.571l-97.524-97.524v-48.762h455.924c-10.771 29.015-17.023 62.532-17.067 97.504v0.019h-243.81v341.333c0 134.652 109.157 243.81 243.81 243.81s243.81-109.157 243.81-243.81v0-53.15c14.656 2.783 31.52 4.379 48.754 4.389h0.008c0.065 0 0.141 0 0.217 0 17.161 0 33.949-1.597 50.223-4.65l-1.679 0.262v53.15c0 0.026 0 0.057 0 0.088 0 153.74-101.641 283.74-241.392 326.469l-2.418 0.636v14.141c0 53.861-43.663 97.524-97.524 97.524v0zM682.667 374.857v-146.286h-146.286v-97.524h146.286v-146.286h97.524v146.286h146.286v97.524h-146.286v146.286zM341.333 33.524c0.007-53.855 43.667-97.511 97.524-97.511 33.267 0 62.644 16.657 80.245 42.086l0.212 0.324c-15.177 16.193-28.726 34.244-40.183 53.676l-0.777 1.425z" />
<glyph unicode="&#xe91d;" glyph-name="tune-variant" horiz-adv-x="1138" d="M341.063 391.075c-105.007-0.429-193.186-71.974-218.897-168.945l-0.358-1.587h-121.808v-113.688h121.808c25.881-98.791 114.356-170.497 219.579-170.497s193.699 71.706 219.227 168.918l0.352 1.579h576.558v113.688h-576.558c-26.068 98.557-114.247 170.102-219.205 170.531h-0.049zM341.712 50.012c-62.788 0-113.688 50.9-113.688 113.688s50.9 113.688 113.688 113.688c62.788 0 113.688-50.9 113.688-113.688v0c-0.23-62.695-50.992-113.458-113.665-113.687h-0.022zM1016.042 789.469c-25.653 99.114-114.287 171.136-219.742 171.136s-194.089-72.022-219.395-169.561l-0.347-1.575h-576.558v-113.688h576.558c25.881-98.791 114.356-170.497 219.579-170.497s193.699 71.706 219.227 168.918l0.352 1.579h121.808v113.688h-121.808zM796.463 618.937c-62.788 0-113.688 50.9-113.688 113.688s50.9 113.688 113.688 113.688c62.788 0 113.688-50.9 113.688-113.688v0c-0.23-62.695-50.992-113.458-113.665-113.687h-0.022z" />
</font>
</defs>
</svg>
