<svg id="account-outline" xmlns="http://www.w3.org/2000/svg" width="32" height="32" viewBox="0 0 32 32">
  <g id="Boundary" fill="#c96a00" stroke="rgba(0,0,0,0)" stroke-width="1" opacity="0">
    <rect width="32" height="32" stroke="none"/>
    <rect x="0.5" y="0.5" width="31" height="31" fill="none"/>
  </g>
  <path id="Path_account-outline" data-name="Path / account-outline" d="M15.208,4A5.6,5.6,0,1,1,9.6,9.6a5.6,5.6,0,0,1,5.6-5.6m0,2.8a2.8,2.8,0,1,0,2.8,2.8,2.8,2.8,0,0,0-2.8-2.8m0,9.807c3.741,0,11.208,1.863,11.208,5.6v4.2H4v-4.2c0-3.741,7.467-5.6,11.208-5.6m0,2.662c-4.161,0-8.546,2.045-8.546,2.942v1.541H23.754V22.212C23.754,21.316,19.369,19.27,15.208,19.27Z" transform="translate(0.792 0.792)" fill="#c96a00"/>
</svg>
