<svg xmlns="http://www.w3.org/2000/svg" xmlns:xlink="http://www.w3.org/1999/xlink" width="20" height="23.333" viewBox="0 0 20 23.333">
  <defs>
    <clipPath id="clip-path">
      <rect id="Rectangle_42" data-name="Rectangle 42" width="20" height="23.333" fill="#fff"/>
    </clipPath>
  </defs>
  <g id="acheter" clip-path="url(#clip-path)">
    <path id="Path_23" data-name="Path 23" d="M168,270.469a1.667,1.667,0,1,1,1.667,1.667A1.667,1.667,0,0,1,168,270.469" transform="translate(-159.667 -255.469)" fill="#fff"/>
    <path id="Path_24" data-name="Path 24" d="M.85,22.337a.833.833,0,0,0,.817,1H5.833a.833.833,0,0,0,.833-.833,3.282,3.282,0,0,1,1.4-2.691,9.85,9.85,0,0,0,3.859,0,3.282,3.282,0,0,1,1.4,2.691.833.833,0,0,0,.833.833h4.167a.833.833,0,0,0,.817-1L17.9,16.1A9.994,9.994,0,1,0,0,10a9.939,9.939,0,0,0,2.1,6.1ZM15,3.349a8.3,8.3,0,0,1,0,13.3Zm1.5,14.242.816,4.076H14.931a4.9,4.9,0,0,0-1.141-2.416,10.736,10.736,0,0,0,2.712-1.66M6.666,2.367a8.279,8.279,0,0,1,6.667,0V17.628a8.23,8.23,0,0,1-6.667,0ZM6.21,19.251a4.906,4.906,0,0,0-1.141,2.416H2.683L3.5,17.591a10.638,10.638,0,0,0,2.712,1.66M1.666,10A8.317,8.317,0,0,1,5,3.349v13.3A8.283,8.283,0,0,1,1.666,10" fill="#fff"/>
  </g>
</svg>
