<svg id="arrow-left" xmlns="http://www.w3.org/2000/svg" width="27.003" height="15.753" viewBox="0 0 27.003 15.753">
  <path id="Path_29" data-name="Path 29" d="M31.171,10.454a1.125,1.125,0,0,0-1.593,0l-6.75,6.75a1.125,1.125,0,0,0,0,1.593l6.75,6.75a1.126,1.126,0,1,0,1.593-1.593L25.216,18l5.956-5.954a1.125,1.125,0,0,0,0-1.593Z" transform="translate(-22.497 -10.123)" fill="#c96a00" fill-rule="evenodd"/>
  <path id="Path_30" data-name="Path 30" d="M30.375,18a1.125,1.125,0,0,0-1.125-1.125H5.625a1.125,1.125,0,0,0,0,2.25H29.25A1.125,1.125,0,0,0,30.375,18Z" transform="translate(-3.372 -10.123)" fill="#c96a00" fill-rule="evenodd"/>
</svg>
