<?xml version="1.0" encoding="utf-8"?>
<!-- Generator: Adobe Illustrator 23.0.1, SVG Export Plug-In . SVG Version: 6.00 Build 0)  -->
<svg version="1.1" id="barrel" xmlns="http://www.w3.org/2000/svg" xmlns:xlink="http://www.w3.org/1999/xlink" x="0px" y="0px"
	 viewBox="0 0 20 23.3" style="enable-background:new 0 0 20 23.3;" xml:space="preserve">
<style type="text/css">
	.st0{clip-path:url(#SVGID_2_);}
	.st1{fill:#EA5549;}
</style>
<g>
	<defs>
		<rect id="SVGID_1_" width="20" height="23.3"/>
	</defs>
	<clipPath id="SVGID_2_">
		<use xlink:href="#SVGID_1_"  style="overflow:visible;"/>
	</clipPath>
	<g id="Group_17" class="st0">
		<path id="Path_23" class="st1" d="M8.3,15c0-0.9,0.7-1.7,1.7-1.7c0.9,0,1.7,0.7,1.7,1.7c0,0.9-0.7,1.7-1.7,1.7l0,0
			C9.1,16.7,8.3,15.9,8.3,15"/>
		<path id="Path_24" class="st1" d="M0.9,22.3c-0.1,0.5,0.2,0.9,0.6,1c0.1,0,0.1,0,0.2,0h4.2c0.5,0,0.8-0.4,0.8-0.8l0,0
			c0-1.1,0.5-2.1,1.4-2.7c1.3,0.3,2.6,0.3,3.9,0c0.9,0.6,1.4,1.6,1.4,2.7c0,0.5,0.4,0.8,0.8,0.8l0,0h4.2c0.5,0,0.8-0.4,0.8-0.8
			c0-0.1,0-0.1,0-0.2l-1.2-6.2c3.4-4.4,2.6-10.6-1.8-14S5.5-0.5,2.1,3.9C0.7,5.6,0,7.8,0,10c0,2.2,0.7,4.4,2.1,6.1L0.9,22.3z
			 M15,3.3c3.7,2.7,4.4,7.9,1.7,11.6c-0.5,0.6-1,1.2-1.7,1.7V3.3z M16.5,17.6l0.8,4.1h-2.4c-0.1-0.9-0.5-1.7-1.1-2.4
			C14.8,18.8,15.7,18.3,16.5,17.6 M6.7,2.4c2.1-0.9,4.5-0.9,6.7,0v15.3c-2.1,0.9-4.5,0.9-6.7,0L6.7,2.4z M6.2,19.3
			c-0.6,0.7-1,1.5-1.1,2.4H2.7l0.8-4.1C4.3,18.3,5.2,18.8,6.2,19.3 M1.7,10c0-2.6,1.2-5.1,3.3-6.7v13.3C2.9,15.1,1.7,12.6,1.7,10"/>
	</g>
</g>
</svg>
