<?xml version="1.0" encoding="utf-8"?>
<!-- Generator: Adobe Illustrator 23.0.1, SVG Export Plug-In . SVG Version: 6.00 Build 0)  -->
<svg version="1.1" id="Layer_1" xmlns="http://www.w3.org/2000/svg" xmlns:xlink="http://www.w3.org/1999/xlink" x="0px" y="0px"
	 viewBox="0 0 9.3 25.3" style="enable-background:new 0 0 9.3 25.3;" xml:space="preserve">
<style type="text/css">
	.st0{fill:none;}
	.st1{fill:#EA5549;}
</style>
<rect class="st0" width="9.3" height="25.3"/>
<path id="Path_36" class="st1" d="M9.3,14.7c0-1.8-0.5-3.5-1.4-5C7.1,8.4,6.7,6.9,6.7,5.3V0.2C6.7,0.1,6.6,0,6.4,0c0,0,0,0,0,0H2.6
	C2.5,0,2.4,0.1,2.4,0.2c0,0,0,0,0,0v5.3c0,1.4-0.4,2.9-1,4.1L1.2,9.9c-0.8,1.4-1.2,3-1.2,4.6v10.5c0,0.1,0.1,0.2,0.2,0.2
	c0,0,0,0,0,0h8.8c0.1,0,0.2-0.1,0.2-0.2l0,0L9.3,14.7z M8,21.8H5.3c-0.1,0-0.2-0.1-0.2-0.2l0,0v-6.3c0-0.1,0.1-0.2,0.2-0.2l0,0H8
	c0.1,0,0.2,0.1,0.2,0.2c0,0,0,0,0,0v6.3C8.2,21.7,8.1,21.8,8,21.8C8,21.8,8,21.8,8,21.8 M5.6,1.3v1.6c0,0.1-0.1,0.2-0.2,0.2H3.7
	c-0.1,0-0.2-0.1-0.2-0.2c0,0,0,0,0,0V1.3c0-0.1,0.1-0.2,0.2-0.2l0,0h1.7C5.5,1.1,5.6,1.2,5.6,1.3 M1.3,24.2c-0.1,0-0.2-0.1-0.2-0.2
	v-9.5c0-1.4,0.4-2.9,1-4.1l0.1-0.2c0.8-1.4,1.2-3,1.2-4.6v-1c0-0.1,0.1-0.2,0.2-0.2h1.7c0.1,0,0.2,0.1,0.2,0.2v0.8
	c0,1.8,0.5,3.5,1.4,5c0.6,1,1,2.2,1.2,3.4C8.2,13.9,8.1,14,8,14c0,0,0,0,0,0H4.2C4.1,14,4,14.1,4,14.2l0,0v8.4
	c0,0.1,0.1,0.2,0.2,0.2h0H8c0.1,0,0.2,0.1,0.2,0.2l0,0V24c0,0.1-0.1,0.2-0.2,0.2H1.3z"/>
</svg>
