<?xml version="1.0" encoding="utf-8"?>
<!-- Generator: Adobe Illustrator 23.0.1, SVG Export Plug-In . SVG Version: 6.00 Build 0)  -->
<svg version="1.1" id="Layer_1" xmlns="http://www.w3.org/2000/svg" xmlns:xlink="http://www.w3.org/1999/xlink" x="0px" y="0px"
	 viewBox="0 0 24 24" style="enable-background:new 0 0 24 24;" xml:space="preserve">
<style type="text/css">
	.st0{fill:#EA5549;}
</style>
<g id="calendar-outline" transform="translate(0 -0.447)">
	<path id="Path_calendar-outline" class="st0" d="M19,4.4h-1v-2h-2v2H8v-2H6v2H5c-1.1,0-2,0.9-2,2v14c0,1.1,0.9,2,2,2h14
		c1.1,0,2-0.9,2-2v-14C21,5.3,20.1,4.4,19,4.4 M19,20.4H5v-10h14V20.4 M19,8.4H5v-2h14V8.4 M12,13.4h5v5h-5V13.4z"/>
</g>
</svg>
