<svg id="envelop" xmlns="http://www.w3.org/2000/svg" xmlns:xlink="http://www.w3.org/1999/xlink" width="32.219" height="23.372" viewBox="0 0 32.219 23.372">
  <defs>
    <clipPath id="clip-path">
      <rect id="Rectangle_79" data-name="Rectangle 79" width="32.219" height="23.372" fill="#272034"/>
    </clipPath>
  </defs>
  <g id="Group_46" data-name="Group 46" clip-path="url(#clip-path)">
    <path id="Path_986" data-name="Path 986" d="M26.95,0a5.273,5.273,0,0,1,3.731,1.551,5.209,5.209,0,0,1,1.539,3.73V18.1a5.274,5.274,0,0,1-5.275,5.275H5.276A5.284,5.284,0,0,1,0,18.091V5.281A5.284,5.284,0,0,1,5.275,0ZM16.13,12.421l.125-.072,14.1-8.136.175-.1-.073-.189a3.766,3.766,0,0,0-3.5-2.4H5.281a3.751,3.751,0,0,0-1.913.523A3.71,3.71,0,0,0,2.141,3.214l-.131.2.2.129,13.8,8.8.121.077M1.517,17.835l.373-.261,9.015-6.3.291-.2-.3-.191L1.881,5.135,1.517,4.9V17.835m29.192-.059V5.755l-.356.205-9.086,5.249-.334.193.323.211,9.087,5.924.366.239M5.281,21.843H26.995a3.763,3.763,0,0,0,3.383-2.228l.081-.184-.168-.11L19.578,12.333l-.122-.08-.126.073L16.5,13.964a.793.793,0,0,1-.379.1.772.772,0,0,1-.412-.119h0l-.027-.016-2.962-1.887-.134-.085-.13.091L1.958,19.386l-.164.115.086.181a3.815,3.815,0,0,0,1.282,1.5,3.74,3.74,0,0,0,2.118.657" fill="#272034"/>
  </g>
</svg>
