<?xml version="1.0" encoding="utf-8"?>
<!-- Generator: Adobe Illustrator 23.0.1, SVG Export Plug-In . SVG Version: 6.00 Build 0)  -->
<svg version="1.1" id="Layer_1" xmlns="http://www.w3.org/2000/svg" xmlns:xlink="http://www.w3.org/1999/xlink" x="0px" y="0px"
	 viewBox="0 0 31.3 30.1" style="enable-background:new 0 0 31.3 30.1;" xml:space="preserve">
<style type="text/css">
	.st0{clip-path:url(#SVGID_2_);}
	.st1{fill:#EA5549;}
</style>
<g>
	<defs>
		<rect id="SVGID_1_" width="31.3" height="30.1"/>
	</defs>
	<clipPath id="SVGID_2_">
		<use xlink:href="#SVGID_1_"  style="overflow:visible;"/>
	</clipPath>
	<g class="st0">
		<path class="st1" d="M27.2,2.7c-0.5-1.2-1.5-2.1-2.7-2.6c-1.2-0.5-2.6-0.5-3.9,0c-1.2,0.5-2.1,1.4-2.6,2.6c-2.5,0.3-4.4,2.4-4.4,5
			c0,1.3,0.6,2.6,1.5,3.6c-0.1,0.4-0.1,0.7-0.1,1.1c0,2.8,2.3,5.1,5.1,5.1h0.4l-0.3,6c-0.5-0.2-1-0.4-1.5-0.4
			c0.4-0.6,0.7-1.3,0.7-2.1c0-2-1.6-3.6-3.6-3.6H6.1c0,0,0,0,0,0c-2,0-3.6,1.6-3.6,3.6c0,0.8,0.2,1.5,0.7,2.1
			c-1.9,0.1-3.4,1.7-3.4,3.6c0,2,1.6,3.6,3.6,3.6h15.2c0,0,0,0,0,0c0.6,0,1.3-0.2,1.8-0.5c0.3,0.3,0.7,0.5,1.1,0.5h2.2
			c0.9,0,1.6-0.8,1.6-1.7l-0.5-11.2h0.4c2.8,0,5.1-2.3,5.1-5.1c0-0.4-0.1-0.7-0.1-1.1c0.8-0.8,1.3-1.8,1.4-2.9l0,0l0-0.6
			C31.6,5.2,29.7,3,27.2,2.7z M22.2,26.7c0-0.7-0.2-1.4-0.6-2l0.3-7.3h1.3l0.5,11.3c0,0,0,0.1-0.1,0.1h-2.1
			C22,28.2,22.2,27.4,22.2,26.7z M15.7,23.1H9.1c0.9-1.2,0.9-2.9,0-4.2h6.5c1.2,0,2.1,0.9,2.1,2.1S16.8,23.1,15.7,23.1z M9.1,24.6
			c1.2,0,2.1,0.9,2.1,2.1c0,1.2-0.9,2.1-2.1,2.1c-1.2,0-2.1-0.9-2.1-2.1C7,25.6,7.9,24.6,9.1,24.6z M7.6,19.5
			C8,19.9,8.2,20.4,8.2,21c0,0.6-0.2,1.1-0.6,1.5c-0.4,0.4-0.9,0.6-1.5,0.6c0,0,0,0,0,0c-0.6,0-1.1-0.2-1.5-0.6
			C4.3,22.1,4.1,21.6,4,21c0-1.2,0.9-2.1,2.1-2.1c0,0,0,0,0,0C6.7,18.9,7.2,19.1,7.6,19.5z M12.7,26.7c0-0.8-0.2-1.5-0.7-2.1h6.5
			c1.2,0,2.1,0.9,2.1,2.1s-0.9,2.1-2.1,2.1h-6.5C12.5,28.2,12.7,27.5,12.7,26.7z M3.3,24.6c1.2,0,2.1,0.9,2.1,2.1
			c0,1.2-0.9,2.1-2.1,2.1c-1.2,0-2.1-0.9-2.1-2.1C1.2,25.6,2.2,24.6,3.3,24.6z M25.2,16.1L25.2,16.1l0-0.2H20c-2,0-3.5-1.6-3.5-3.5
			c0-0.4,0.1-0.7,0.2-1.1c0.1-0.3,0-0.6-0.2-0.8c-0.8-0.7-1.3-1.7-1.3-2.7c0-1.9,1.5-3.5,3.4-3.5c0.3,0,0.6-0.2,0.7-0.5
			c0.3-0.9,0.9-1.6,1.8-2c0.8-0.4,1.8-0.5,2.7-0.2c1,0.4,1.8,1.2,2.2,2.2C26,4,26.3,4.2,26.6,4.2C28.5,4.3,30,5.8,30,7.7
			c0,1.1-0.5,2-1.3,2.7c-0.2,0.2-0.3,0.5-0.2,0.8c0.1,0.3,0.2,0.7,0.2,1.1c0,1.9-1.5,3.5-3.4,3.5L25.2,16.1L25.2,16.1z"/>
		<path class="st1" d="M26.6,6.8c0.5,0,0.9,0.4,0.9,0.9c0,0.3-0.1,0.5-0.3,0.7c-0.2,0.1-0.3,0.3-0.3,0.5c0,0.2,0,0.4,0.2,0.6
			c0.1,0.2,0.4,0.3,0.6,0.3c0,0,0,0,0,0c0.2,0,0.4-0.1,0.5-0.2C28.7,9.1,29,8.4,29,7.7c-0.1-1.3-1.1-2.3-2.3-2.4l0,0l-0.1,0
			c-0.4,0-0.7,0.3-0.8,0.7C25.8,6.4,26.1,6.8,26.6,6.8z"/>
		<path class="st1" d="M15.8,19.3h-0.2c-0.2,0-0.4,0.1-0.6,0.2c-0.1,0.1-0.2,0.3-0.2,0.4c-0.1-0.4-0.4-0.6-0.8-0.6h-2.2
			c-0.2,0-0.4,0.1-0.5,0.2c-0.1,0.1-0.2,0.3-0.2,0.6c0,0.4,0.4,0.7,0.8,0.8l2.2,0c0,0,0,0,0,0c0.2,0,0.4-0.1,0.5-0.2
			c0.1-0.1,0.2-0.3,0.2-0.4c0.1,0.4,0.3,0.6,0.7,0.6h0.2c0,0,0,0,0,0c0.2,0,0.4-0.1,0.5-0.2c0.2-0.1,0.2-0.3,0.3-0.5
			c0-0.2-0.1-0.4-0.2-0.6S16.1,19.3,15.8,19.3z M15.6,20.6L15.6,20.6L15.6,20.6L15.6,20.6z"/>
		<path class="st1" d="M4.5,20.9c0,0.2,0,0.4,0.1,0.6s0.3,0.3,0.5,0.3c0,0,0.1,0,0.1,0c0,0,0,0,0,0C5.7,21.8,6,21.4,6,21
			c0,0,0-0.1,0-0.1c0,0,0,0,0.1,0C6.6,20.8,7,20.5,7,20c0-0.4-0.3-0.8-0.8-0.8C5.3,19.3,4.5,20,4.5,20.9z"/>
		<path class="st1" d="M18.7,26.6c0.4,0,0.8-0.3,0.8-0.7c0-0.4-0.3-0.8-0.8-0.8h-0.3c-0.2,0-0.4,0.1-0.5,0.3
			c-0.1,0.1-0.2,0.3-0.2,0.5c0-0.4-0.4-0.7-0.8-0.7h-2.2c-0.2,0-0.4,0.1-0.5,0.3S14,25.7,14,25.9c0,0.4,0.3,0.7,0.8,0.7H17
			c0.4,0,0.7-0.3,0.8-0.7c0,0.4,0.3,0.7,0.8,0.7L18.7,26.6C18.7,26.6,18.7,26.6,18.7,26.6z M18.7,25.3L18.7,25.3L18.7,25.3
			L18.7,25.3z"/>
		<path class="st1" d="M8.2,27.5C8.2,27.5,8.2,27.5,8.2,27.5c0.4,0,0.8-0.3,0.8-0.7l0-0.1c0,0,0-0.1,0-0.1c0,0,0.1,0,0.1,0
			c0.2,0,0.4-0.1,0.5-0.2c0.1-0.1,0.2-0.3,0.2-0.6C9.8,25.4,9.5,25,9.1,25h0c-0.9,0-1.7,0.8-1.7,1.7C7.4,27.1,7.7,27.5,8.2,27.5z"/>
		<path class="st1" d="M2.4,27.5C2.4,27.5,2.4,27.5,2.4,27.5c0.4,0,0.8-0.3,0.8-0.7l0-0.1c0-0.1,0.1-0.1,0.1-0.1c0,0,0,0,0,0
			c0.4,0,0.8-0.3,0.8-0.8C4.1,25.4,3.7,25,3.3,25h0c-0.9,0-1.7,0.8-1.7,1.7C1.6,27.1,2,27.5,2.4,27.5z"/>
	</g>
</g>
</svg>
