<?xml version="1.0" encoding="utf-8"?>
<!-- Generator: Adobe Illustrator 23.0.1, SVG Export Plug-In . SVG Version: 6.00 Build 0)  -->
<svg version="1.1" id="Layer_1" xmlns="http://www.w3.org/2000/svg" xmlns:xlink="http://www.w3.org/1999/xlink" x="0px" y="0px"
	 viewBox="0 0 14.5 23.3" style="enable-background:new 0 0 14.5 23.3;" xml:space="preserve">
<style type="text/css">
	.st0{fill-rule:evenodd;clip-rule:evenodd;fill:#EA5549;}
</style>
<g>
	<path class="st0" d="M6.4,9.6v9.7c0,0.4,0.4,0.8,0.8,0.8c0.4,0,0.8-0.4,0.8-0.8V9.6c2.3-0.4,4-2.4,4-4.7C12.1,2.2,9.9,0,7.2,0
		C4.6,0,2.4,2.2,2.4,4.8C2.4,7.2,4.2,9.2,6.4,9.6z"/>
	<path class="st0" d="M13.2,18.2c-0.8-0.5-1.7-0.8-2.6-1c-0.4-0.1-0.9,0.2-1,0.6c-0.1,0.4,0.2,0.9,0.6,1c0.7,0.1,1.4,0.4,2.1,0.8
		c0.5,0.3,0.5,0.5,0.5,0.5s0,0.1-0.2,0.3c-0.3,0.3-0.7,0.5-1.1,0.6c-1.4,0.5-2.8,0.7-4.3,0.7c-1.5,0-2.9-0.2-4.3-0.7
		c-0.4-0.1-0.8-0.3-1.1-0.6c-0.2-0.2-0.2-0.3-0.2-0.3c0,0,0-0.2,0.5-0.5c0.6-0.4,1.3-0.6,2.1-0.8c0,0,0,0,0,0c0.4-0.1,0.7-0.5,0.6-1
		l0,0c0,0,0,0,0,0c-0.1-0.4-0.5-0.7-1-0.6c-0.9,0.2-1.8,0.5-2.6,1c-0.7,0.4-1.2,1.1-1.3,1.9c0,0.6,0.3,1.2,0.8,1.5
		c0.5,0.4,1,0.7,1.6,0.9c1.6,0.5,3.2,0.8,4.8,0.8c1.6,0,3.3-0.2,4.8-0.8c0.6-0.2,1.1-0.5,1.6-0.9c0.5-0.4,0.8-0.9,0.8-1.5
		C14.4,19.3,13.9,18.6,13.2,18.2z"/>
</g>
</svg>
