<svg id="heart-plus-outline" xmlns="http://www.w3.org/2000/svg" width="24" height="24" viewBox="0 0 24 24">
  <g id="Boundary" fill="#fff" stroke="rgba(0,0,0,0)" stroke-width="1" opacity="0">
    <rect width="24" height="24" stroke="none"/>
    <rect x="0.5" y="0.5" width="23" height="23" fill="none"/>
  </g>
  <path id="Path_heart-plus-outline" data-name="Path / heart-plus-outline" d="M12.67,20.74l-.67.61-1.45-1.32C5.4,15.36,2,12.27,2,8.5A5.44,5.44,0,0,1,7.5,3,6.014,6.014,0,0,1,12,5.08,6.014,6.014,0,0,1,16.5,3,5.44,5.44,0,0,1,22,8.5a7.441,7.441,0,0,1-1.38,4.11,6.01,6.01,0,0,0-2.03-.57A6.073,6.073,0,0,0,20,8.5,3.418,3.418,0,0,0,16.5,5a3.926,3.926,0,0,0-3.57,2.36H11.07A3.926,3.926,0,0,0,7.5,5,3.418,3.418,0,0,0,4,8.5c0,2.89,3.14,5.74,7.89,10.05l.11.1.04-.04a6.12,6.12,0,0,0,.63,2.13M17,14v3H14v2h3v3h2V19h3V17H19V14Z" fill="#fff"/>
</svg>
