<svg id="list" xmlns="http://www.w3.org/2000/svg" width="36" height="29.455" viewBox="0 0 36 29.455">
  <path id="Path_20" data-name="Path 20" d="M5.625,34.568a1.636,1.636,0,0,1,1.636-1.636H22.989a1.636,1.636,0,0,1,0,3.273H7.261A1.636,1.636,0,0,1,5.625,34.568Zm0-13.091a1.636,1.636,0,0,1,1.636-1.636H39.989a1.636,1.636,0,0,1,0,3.273H7.261A1.636,1.636,0,0,1,5.625,21.477Zm0-13.091A1.636,1.636,0,0,1,7.261,6.75H39.989a1.636,1.636,0,0,1,0,3.273H7.261A1.636,1.636,0,0,1,5.625,8.386Z" transform="translate(-5.625 -6.75)" fill="#fff" fill-rule="evenodd"/>
</svg>
