<svg xmlns="http://www.w3.org/2000/svg" width="320" height="128.922" viewBox="0 0 320 128.922">
  <g id="logo-cdc" transform="translate(-2.97 -6.796)">
    <path id="Path_48" data-name="Path 48" d="M21.049,296.912l.467,3.642.042.379-.042.152a.266.266,0,0,1-.218.152c-.115.009-.291-.2-.525-.634q-2.725-4.962-7.381-4.961a7.467,7.467,0,0,0-5.852,2.377,9.351,9.351,0,0,0-2.141,6.5,12.112,12.112,0,0,0,2.38,7.748A7.463,7.463,0,0,0,13.9,315.27a8.521,8.521,0,0,0,4.294-1.216,6.855,6.855,0,0,0,2.926-2.954c.252-.537.446-.813.582-.822.155-.012.233.088.233.291l-.015.167-.058.337-.334,1.859-.058.276a1.377,1.377,0,0,1-.682.819,13.123,13.123,0,0,1-7.405,2.232,10.146,10.146,0,0,1-7.551-2.9,10.366,10.366,0,0,1-2.866-7.623,10.976,10.976,0,0,1,2.966-7.86,9.831,9.831,0,0,1,7.448-3.129,11.349,11.349,0,0,1,5.643,1.44l.582.318.233.106.249.091a.417.417,0,0,0,.218-.121,1.021,1.021,0,0,1,.437-.243c.155-.006.255.185.3.57Z" transform="translate(0 -200.438)" fill="#fff"/>
    <path id="Path_49" data-name="Path 49" d="M78.664,304.8h8.582a1.731,1.731,0,0,0,.816-.121c.115-.082.173-.264.173-.549v-5.191a4.647,4.647,0,0,0-.385-2.223,2.1,2.1,0,0,0-1.419-.9c-.291-.058-.431-.179-.421-.355s.13-.252.364-.252c.2,0,.534.027.989.076a18.821,18.821,0,0,0,2.038.106,17.63,17.63,0,0,0,2.183-.091,3.853,3.853,0,0,1,.54-.061c.233,0,.349.1.349.294,0,.155-.115.261-.349.309l-.6.136a1.158,1.158,0,0,0-.758.676A2.858,2.858,0,0,0,90.46,298V312.67a4.13,4.13,0,0,0,.437,2.244,2.236,2.236,0,0,0,1.671.758c.3.039.458.139.467.3.018.237-.115.355-.406.355a4.766,4.766,0,0,1-.755-.076,10.953,10.953,0,0,0-1.456-.061l-1.076-.015-1.092.03c-.173,0-.406.015-.7.045-.6.052-.937.076-1,.076-.243.012-.358-.088-.349-.3.009-.179.176-.291.494-.34q1.528-.273,1.528-2.6l.015-.591v-5.577c0-.476-.042-.755-.13-.834a1.714,1.714,0,0,0-.873-.121H78.664a1.874,1.874,0,0,0-1.031.173c-.136.118-.2.412-.2.888v5.567a3.814,3.814,0,0,0,.479,2.214,2.5,2.5,0,0,0,1.789.788c.358.039.543.17.552.385s-.13.312-.422.312a6.616,6.616,0,0,1-.713-.067,13.261,13.261,0,0,0-1.747-.07l-1.222-.015-.958.033c-.243,0-.549.018-.916.052-.5.045-.81.067-.916.067q-.364,0-.364-.282c0-.179.127-.3.379-.355l.728-.182a1.243,1.243,0,0,0,.873-1,12.951,12.951,0,0,0,.233-2.981V298.448a3.065,3.065,0,0,0-.479-1.916,2.689,2.689,0,0,0-1.716-.791c-.282-.039-.422-.149-.422-.324,0-.206.124-.306.379-.3q.277.018.873.091a22.607,22.607,0,0,0,2.662.136,14.875,14.875,0,0,0,1.935-.121,4.01,4.01,0,0,1,.61-.061c.282,0,.422.1.422.312,0,.158-.13.273-.394.34a2.249,2.249,0,0,0-1.31.74,2.886,2.886,0,0,0-.334,1.6v5.434c0,.579.055.925.167,1.034s.464.17,1.064.17Z" transform="translate(-48.509 -200.695)" fill="#fff"/>
    <path id="Path_50" data-name="Path 50" d="M154.561,307.081h-5.267a2.928,2.928,0,0,0-1.337.182,3.372,3.372,0,0,0-.7,1.216l-.955,2.235a6.688,6.688,0,0,0-.646,2.28,1.361,1.361,0,0,0,.343,1.034,3.08,3.08,0,0,0,1.346.546c.291.061.443.179.452.355s-.124.252-.406.252c-.106,0-.273-.006-.494-.018l-1.392-.085c-.464-.021-1-.033-1.61-.033-.279,0-.5.006-.652.021-.494.058-.764.085-.813.085-.261,0-.391-.094-.391-.279a.317.317,0,0,1,.246-.327l.54-.167a2.075,2.075,0,0,0,.785-.737,7.193,7.193,0,0,0,.816-1.343l.422-1,7.478-17.321c.127-.3.267-.455.421-.455s.285.146.394.44l6.253,16.708.321.822a7.475,7.475,0,0,0,1.134,2.286,3.692,3.692,0,0,0,1.832.707c.3.061.446.182.437.37-.009.17-.146.252-.406.252-.088,0-.273-.009-.552-.03Q161.4,315,159.467,315a20.118,20.118,0,0,0-2.529.091,2.692,2.692,0,0,1-.452.061c-.252,0-.379-.1-.379-.309,0-.158.121-.261.364-.312l.449-.106a.912.912,0,0,0,.728-1.034,12.058,12.058,0,0,0-.888-3.205l-.728-2.007a2.716,2.716,0,0,0-.479-.967,2.259,2.259,0,0,0-.992-.127Zm.176-2.441-2.283-6.007-.115-.318c-.115-.324-.243-.491-.379-.5-.07-.009-.146.088-.233.288l-2.835,6.568a1.8,1.8,0,0,0-.188.561c0,.264.224.394.67.394l.391.015h4.394c.485,0,.728-.127.728-.379a1.405,1.405,0,0,0-.073-.349Z" transform="translate(-96.899 -199.582)" fill="#fff"/>
    <path id="Path_51" data-name="Path 51" d="M218.139,300.041v11.371a10,10,0,0,0,.249,2.814,2.372,2.372,0,0,0,.719,1.095,3.044,3.044,0,0,0,1.346.455q.728.1.728.373c0,.237-.152.355-.449.355a3.81,3.81,0,0,1-.552-.049,11.935,11.935,0,0,0-1.543-.067l-2.108-.033-1.716.106a6.734,6.734,0,0,1-.7.045c-.261,0-.394-.1-.394-.309,0-.179.152-.291.452-.343a1.864,1.864,0,0,0,1.425-.8,6.37,6.37,0,0,0,.321-2.529V299.523a5.226,5.226,0,0,0-.415-2.538,2.469,2.469,0,0,0-1.768-.879c-.3-.061-.458-.179-.467-.358-.009-.218.13-.327.422-.327a2.181,2.181,0,0,1,.264.018,23.128,23.128,0,0,0,2.82.136q1.078,0,1.847-.052l.976-.085q.277-.018.364-.018c.264,0,.394.094.394.282s-.127.312-.379.4l-.755.3Q218.139,296.833,218.139,300.041Z" transform="translate(-146.405 -200.906)" fill="#fff"/>
    <g id="Group_39" data-name="Group 39" transform="translate(24.773 93.983)">
      <path id="Path_52" data-name="Path 52" d="M272.777,299.033a4.016,4.016,0,0,0-.494-2.25,2.142,2.142,0,0,0-1.644-.834c-.321-.03-.479-.133-.479-.312,0-.2.124-.294.379-.294l1.149.061c.115.009.458.015,1.019.015q1.469,0,2.283-.076l1.352-.136c.582-.049,1.222-.076,1.919-.076q5.963,0,8.945,3.126a10.141,10.141,0,0,1,2.72,7.3,11.662,11.662,0,0,1-1.192,5.264,9.4,9.4,0,0,1-3.317,3.778,10.5,10.5,0,0,1-5.846,1.744c-.252,0-.7-.024-1.337-.076-1.3-.091-2.429-.136-3.39-.136a18.934,18.934,0,0,0-2.7.167q-.523.077-.828.091c-.34.021-.509-.094-.509-.34,0-.167.136-.282.406-.343a1.768,1.768,0,0,0,1.28-.758,5.533,5.533,0,0,0,.291-2.232V299.033ZM275,297.826v15.614a1.272,1.272,0,0,0,.885,1.274,13.46,13.46,0,0,0,3.994.758,7.986,7.986,0,0,0,4.476-1.3q3.37-2.179,3.369-7.42a12.889,12.889,0,0,0-1.052-5.24,9.121,9.121,0,0,0-2.9-3.757,8.888,8.888,0,0,0-5.48-1.68,5.249,5.249,0,0,0-2.92.516,1.573,1.573,0,0,0-.373,1.24Z" transform="translate(-210.813 -294.642)" fill="#fff"/>
      <path id="Path_53" data-name="Path 53" d="M347.775,297.891v6.119a1.664,1.664,0,0,0,.124.846c.082.1.331.146.749.146h2.241a12.573,12.573,0,0,0,2.414-.182,1.905,1.905,0,0,0,1.019-.44,3.187,3.187,0,0,0,.422-1.274q.073-.378.373-.364c.188.009.282.146.282.406,0,.073-.006.182-.015.334-.085.979-.13,1.871-.13,2.678q0,.923.088,1.832c.021.2.03.349.03.437,0,.252-.094.379-.282.379a.352.352,0,0,1-.373-.334l-.088-.425a2.007,2.007,0,0,0-.7-1.38,3.222,3.222,0,0,0-1.771-.364h-3.208a2.017,2.017,0,0,0-.952.152.671.671,0,0,0-.24.609l.015.5v5.592q0,1.292.443,1.61a4.729,4.729,0,0,0,2.244.318q5.708,0,7.335-2.684.164-.259.327-.273c.179-.009.27.121.27.391a4.1,4.1,0,0,1-1.061,2.344A3.936,3.936,0,0,1,354.1,316.5c-.282,0-.658-.018-1.134-.061q-2.779-.273-4.6-.273a24.11,24.11,0,0,0-3.593.182,5.063,5.063,0,0,1-.755.106c-.312,0-.467-.109-.467-.324,0-.17.124-.288.379-.358l.552-.167c.7-.2,1.049-.913,1.049-2.126l.015-.989V299.653a6.264,6.264,0,0,0-.458-2.923,1.918,1.918,0,0,0-1.783-.752c-.282,0-.422-.094-.422-.282,0-.276.218-.415.655-.415a8.77,8.77,0,0,1,.973.076,44.259,44.259,0,0,0,5,.243q1.774,0,3.142-.061l2.065-.106c.573-.021.922-.042,1.049-.061a3.9,3.9,0,0,1,.582-.061c.318,0,.479.149.479.44a1.947,1.947,0,0,1-.042.349c-.03.143-.07.543-.118,1.21l-.058.892a5.989,5.989,0,0,1-.149,1.095.33.33,0,0,1-.324.233q-.282.014-.282-.455v-.394a2.494,2.494,0,0,0-.173-.925,1.552,1.552,0,0,0-1.119-.91,13.88,13.88,0,0,0-3.093-.227H349.2a1.886,1.886,0,0,0-1.161.237C347.86,297.005,347.775,297.354,347.775,297.891Z" transform="translate(-261.443 -294.746)" fill="#fff"/>
      <path id="Path_54" data-name="Path 54" d="M406.271,294.72a6.591,6.591,0,0,1,2.632.47l1,.44a.629.629,0,0,0,.261.061.539.539,0,0,0,.349-.152l.2-.182a.189.189,0,0,1,.161-.061c.243-.009.364.237.364.743,0,.173.064.682.188,1.531l.233,1.562a6.253,6.253,0,0,1,.073.622c0,.312-.106.47-.312.47-.158,0-.315-.243-.476-.731a5.051,5.051,0,0,0-2.126-2.708,6.316,6.316,0,0,0-3.575-1.064,3.726,3.726,0,0,0-2.617.964,3.136,3.136,0,0,0-1.052,2.408,3.608,3.608,0,0,0,.682,2.2,3.964,3.964,0,0,0,1.3,1.155,35.885,35.885,0,0,0,3.466,1.322q5.376,1.833,5.376,6.016a6,6,0,0,1-1.98,4.64,7.238,7.238,0,0,1-5.076,1.8,10.373,10.373,0,0,1-2.465-.334,6.039,6.039,0,0,1-1.971-.773.917.917,0,0,1-.349-.388,7.618,7.618,0,0,1-.261-1.052c-.021-.082-.143-.54-.364-1.38a8.552,8.552,0,0,1-.379-1.941c0-.3.1-.449.3-.44.179.012.337.258.476.746a6.281,6.281,0,0,0,5.859,4.442,4.915,4.915,0,0,0,3.387-1.231,3.857,3.857,0,0,0,1.386-2.99,3.678,3.678,0,0,0-1.277-2.838,14.387,14.387,0,0,0-3.778-1.686,12.063,12.063,0,0,1-4.57-2.517A4.912,4.912,0,0,1,400,300.272a5.094,5.094,0,0,1,1.753-4A6.586,6.586,0,0,1,406.271,294.72Z" transform="translate(-300.894 -294.356)" fill="#fff"/>
      <path id="Path_55" data-name="Path 55" d="M492.5,296.912l.467,3.642.042.379-.042.152a.266.266,0,0,1-.218.152c-.115.009-.291-.2-.525-.634q-2.725-4.962-7.381-4.961a7.467,7.467,0,0,0-5.852,2.377,9.351,9.351,0,0,0-2.141,6.5,12.112,12.112,0,0,0,2.38,7.748,7.463,7.463,0,0,0,6.122,3.005,8.521,8.521,0,0,0,4.294-1.216,6.855,6.855,0,0,0,2.926-2.954c.252-.537.446-.813.582-.822.155-.012.233.088.233.291l-.015.167-.058.337-.334,1.859-.058.276a1.377,1.377,0,0,1-.682.819,13.123,13.123,0,0,1-7.405,2.232,10.146,10.146,0,0,1-7.551-2.9,10.366,10.366,0,0,1-2.866-7.623,10.975,10.975,0,0,1,2.966-7.86,9.831,9.831,0,0,1,7.448-3.129,11.349,11.349,0,0,1,5.643,1.44l.582.318.233.106.249.091a.417.417,0,0,0,.218-.121,1.022,1.022,0,0,1,.437-.243c.152-.006.255.185.3.57Z" transform="translate(-353.001 -294.377)" fill="#fff"/>
      <path id="Path_56" data-name="Path 56" d="M550.114,304.8H558.7a1.732,1.732,0,0,0,.816-.121c.115-.082.173-.264.173-.549v-5.191a4.647,4.647,0,0,0-.385-2.223,2.1,2.1,0,0,0-1.419-.9c-.291-.058-.431-.179-.421-.355s.13-.252.364-.252c.2,0,.534.027.989.076a18.822,18.822,0,0,0,2.038.106,17.63,17.63,0,0,0,2.183-.091,3.853,3.853,0,0,1,.54-.061c.233,0,.349.1.349.294,0,.155-.115.261-.349.309l-.6.136a1.158,1.158,0,0,0-.758.676A2.858,2.858,0,0,0,561.91,298V312.67a4.13,4.13,0,0,0,.437,2.244,2.236,2.236,0,0,0,1.671.758c.3.039.458.139.467.3.021.237-.115.355-.406.355a4.765,4.765,0,0,1-.755-.076,10.954,10.954,0,0,0-1.456-.061l-1.076-.015-1.092.03c-.173,0-.406.015-.7.045-.6.052-.937.076-1,.076-.243.012-.358-.088-.349-.3.009-.179.176-.291.494-.34q1.528-.273,1.528-2.6l.015-.591v-5.577c0-.476-.042-.755-.13-.834a1.75,1.75,0,0,0-.873-.121h-8.569a1.874,1.874,0,0,0-1.031.173c-.136.118-.2.412-.2.888v5.567a3.814,3.814,0,0,0,.479,2.214,2.5,2.5,0,0,0,1.789.788c.358.039.543.17.552.385s-.13.312-.422.312a6.615,6.615,0,0,1-.713-.067,13.261,13.261,0,0,0-1.747-.07l-1.222-.015-.958.033c-.243,0-.549.018-.916.052-.5.045-.81.067-.916.067q-.364,0-.364-.282c0-.179.127-.3.379-.355l.728-.182a1.243,1.243,0,0,0,.873-1,12.95,12.95,0,0,0,.234-2.981V298.448a3.065,3.065,0,0,0-.479-1.916,2.689,2.689,0,0,0-1.716-.791c-.282-.039-.422-.149-.422-.324,0-.206.124-.306.379-.3q.277.018.873.091a22.608,22.608,0,0,0,2.662.136,14.876,14.876,0,0,0,1.935-.121,4.01,4.01,0,0,1,.609-.061c.282,0,.422.1.422.312,0,.158-.13.273-.394.34a2.249,2.249,0,0,0-1.31.74,2.893,2.893,0,0,0-.333,1.6v5.434c0,.579.055.925.167,1.034s.464.17,1.064.17Z" transform="translate(-401.462 -294.634)" fill="#fff"/>
      <path id="Path_57" data-name="Path 57" d="M626.011,307.081h-5.267a2.928,2.928,0,0,0-1.337.182,3.371,3.371,0,0,0-.7,1.216l-.955,2.235a6.688,6.688,0,0,0-.646,2.28,1.361,1.361,0,0,0,.343,1.034,3.08,3.08,0,0,0,1.346.546c.291.061.443.179.452.355s-.124.252-.406.252c-.106,0-.273-.006-.494-.018l-1.392-.085c-.464-.021-1-.033-1.61-.033-.279,0-.5.006-.652.021-.494.058-.764.085-.813.085-.261,0-.391-.094-.391-.279a.317.317,0,0,1,.246-.327l.54-.167a2.075,2.075,0,0,0,.785-.737,7.19,7.19,0,0,0,.816-1.343l.422-1,7.478-17.321c.127-.3.267-.455.422-.455s.285.146.394.44l6.253,16.708.321.822a7.476,7.476,0,0,0,1.134,2.286,3.692,3.692,0,0,0,1.832.707c.3.061.446.182.437.37-.009.17-.146.252-.406.252-.088,0-.273-.009-.552-.03q-.755-.077-2.693-.076a20.117,20.117,0,0,0-2.529.091,2.692,2.692,0,0,1-.452.061c-.252,0-.379-.1-.379-.309,0-.158.121-.261.364-.312l.449-.106a.912.912,0,0,0,.728-1.034,12.058,12.058,0,0,0-.888-3.205l-.728-2.007a2.716,2.716,0,0,0-.479-.967,2.26,2.26,0,0,0-.992-.127Zm.173-2.441-2.283-6.007-.115-.318c-.115-.324-.243-.491-.379-.5-.07-.009-.146.088-.234.288l-2.835,6.568a1.8,1.8,0,0,0-.188.561c0,.264.224.394.67.394l.391.015H625.6c.485,0,.728-.127.728-.379a1.406,1.406,0,0,0-.073-.349Z" transform="translate(-449.806 -293.52)" fill="#fff"/>
      <path id="Path_58" data-name="Path 58" d="M694.6,305.913l4.015,6.174.467.725q1.86,2.843,3.433,2.951l.467.03c.173.009.258.082.246.215-.009.155-.224.294-.646.415a5.071,5.071,0,0,1-1.431.185,3.9,3.9,0,0,1-2.35-.752,8.786,8.786,0,0,1-2.117-2.45l-3.624-5.765-.2-.334a1.2,1.2,0,0,0-1.134-.622h-1.935l-.318.061c-.115.073-.176.233-.176.488v4.749l.015.606a8.5,8.5,0,0,0,.124,1.789,1.639,1.639,0,0,0,.588.858,3.6,3.6,0,0,0,1.935.655c.349.039.528.155.537.34s-.14.3-.479.3c-.136,0-.422-.021-.858-.067a18.022,18.022,0,0,0-1.847-.067l-1.395-.018-.755.015a10.987,10.987,0,0,0-1.192.076c-.379.039-.64.061-.785.061q-.364,0-.364-.309c0-.149.121-.246.364-.3a1.9,1.9,0,0,0,1.528-1.1,10.533,10.533,0,0,0,.364-3.442V300.473l-.03-1.58q0-2.37-1.586-2.644l-.682-.106q-.464-.091-.464-.355c0-.206.164-.312.494-.312.079,0,.418.018,1.019.061.349.03.779.046,1.295.046q.669,0,2.283-.106,1.164-.077,2.05-.076a8.179,8.179,0,0,1,5.049,1.313,4.632,4.632,0,0,1,1.7,3.909Q698.188,304.051,694.6,305.913Zm-4.276-.327h1.647a3.785,3.785,0,0,0,4.1-4.094,4.816,4.816,0,0,0-1.486-3.63,5.26,5.26,0,0,0-3.79-1.422,1.8,1.8,0,0,0-1.189.3,1.41,1.41,0,0,0-.328,1.073l.015.5v6.18a1.459,1.459,0,0,0,.182.907,1.307,1.307,0,0,0,.852.185Z" transform="translate(-499.107 -294.83)" fill="#fff"/>
      <path id="Path_59" data-name="Path 59" d="M756.887,297.65H752.8c-.428,0-.7.061-.807.182a1.5,1.5,0,0,0-.167.895v14.889l.015.591a2.059,2.059,0,0,0,1.9,2.111c.34.061.509.173.509.343,0,.218-.136.324-.409.324a5.452,5.452,0,0,1-.713-.091,11.045,11.045,0,0,0-1.313-.045l-1.064-.015-1.137.015a9.919,9.919,0,0,0-1.034.045c-.555.061-.879.091-.976.091-.291,0-.437-.109-.437-.324,0-.158.161-.258.479-.3a2.262,2.262,0,0,0,1.513-.646,2.955,2.955,0,0,0,.391-1.771V298.89l-.015-.394a.663.663,0,0,0-.858-.849h-3.854a2.457,2.457,0,0,0-1.71.494A3.557,3.557,0,0,0,742.3,300c-.088.394-.218.585-.394.576s-.261-.146-.261-.409a7.022,7.022,0,0,1,.173-1.164,9.49,9.49,0,0,0,.218-1.8,1.834,1.834,0,0,1,.152-.916.759.759,0,0,1,.649-.218H758.5c.534,0,.855.061.967.182a1.978,1.978,0,0,1,.167,1.073,8.177,8.177,0,0,0,.073,1.3c.049.343.079.588.088.74.009.3-.091.464-.306.482-.173.012-.291-.146-.349-.47a2.288,2.288,0,0,0-.609-1.4,2.912,2.912,0,0,0-1.641-.321Z" transform="translate(-539.016 -295.297)" fill="#fff"/>
      <path id="Path_60" data-name="Path 60" d="M815,305.913l4.015,6.174.467.725q1.86,2.843,3.433,2.951l.467.03c.173.009.258.082.246.215-.009.155-.224.294-.646.415a5.071,5.071,0,0,1-1.431.185,3.9,3.9,0,0,1-2.35-.752,8.787,8.787,0,0,1-2.117-2.45l-3.624-5.765-.2-.334a1.2,1.2,0,0,0-1.134-.622h-1.935l-.318.061c-.115.073-.176.233-.176.488v4.749l.015.606a8.5,8.5,0,0,0,.124,1.789,1.64,1.64,0,0,0,.588.858,3.6,3.6,0,0,0,1.935.655c.349.039.528.155.537.34s-.139.3-.479.3c-.136,0-.422-.021-.858-.067a18.023,18.023,0,0,0-1.847-.067l-1.395-.018-.755.015a10.989,10.989,0,0,0-1.192.076c-.379.039-.64.061-.785.061q-.364,0-.364-.309c0-.149.121-.246.364-.3a1.9,1.9,0,0,0,1.528-1.1,10.531,10.531,0,0,0,.364-3.442V300.473l-.03-1.58q0-2.37-1.586-2.644l-.682-.106q-.464-.091-.464-.355c0-.206.164-.312.494-.312.079,0,.418.018,1.019.061.349.03.779.046,1.295.046q.669,0,2.283-.106,1.164-.077,2.05-.076a8.179,8.179,0,0,1,5.049,1.313,4.632,4.632,0,0,1,1.7,3.909Q818.588,304.051,815,305.913Zm-4.273-.327h1.647a3.785,3.785,0,0,0,4.1-4.094,4.816,4.816,0,0,0-1.486-3.63,5.259,5.259,0,0,0-3.79-1.422,1.8,1.8,0,0,0-1.189.3,1.41,1.41,0,0,0-.327,1.073l.015.5v6.18a1.46,1.46,0,0,0,.182.907,1.3,1.3,0,0,0,.852.185Z" transform="translate(-582.919 -294.83)" fill="#fff"/>
      <path id="Path_61" data-name="Path 61" d="M875.8,294.72a10.078,10.078,0,0,1,7.469,2.932,10.2,10.2,0,0,1,2.917,7.511,11.108,11.108,0,0,1-2.938,7.957,9.9,9.9,0,0,1-7.52,3.108,10.148,10.148,0,0,1-7.6-2.972,10.677,10.677,0,0,1-2.9-7.793,11.812,11.812,0,0,1,.764-4.145,10.038,10.038,0,0,1,2.059-3.433,9.7,9.7,0,0,1,3.463-2.311A11.279,11.279,0,0,1,875.8,294.72Zm-.94.989a6.628,6.628,0,0,0-5.364,2.371,9.617,9.617,0,0,0-1.986,6.383,11.92,11.92,0,0,0,2.541,7.739,7.73,7.73,0,0,0,6.238,3.151,7.024,7.024,0,0,0,5.577-2.568,9.643,9.643,0,0,0,2.2-6.5,11.073,11.073,0,0,0-2.635-7.551,8.368,8.368,0,0,0-6.568-3.02Z" transform="translate(-624.963 -294.356)" fill="#fff"/>
      <path id="Path_62" data-name="Path 62" d="M957.524,301.472v12.712a16.39,16.39,0,0,1-.073,2.086c-.049.249-.185.367-.406.355a.477.477,0,0,1-.334-.136l-.318-.394L944.13,301.472l-.146-.167a.27.27,0,0,0-.2-.091c-.185,0-.276.227-.276.682v10.295l-.015.637.042,1.08a2.238,2.238,0,0,0,.494,1.383,3,3,0,0,0,1.543.561c.318.039.479.17.479.385a.268.268,0,0,1-.306.3,3.209,3.209,0,0,1-.437-.03q-.159-.032-1.265-.091l-1.483-.076-.7.027a8.091,8.091,0,0,0-1.076.07,4.313,4.313,0,0,1-.54.055c-.252,0-.388-.094-.406-.282-.009-.149.124-.273.406-.37a2.99,2.99,0,0,0,1.653-1.177,4.948,4.948,0,0,0,.431-2.377V301.96a8.911,8.911,0,0,0-.8-4.136,3.011,3.011,0,0,0-2.314-1.722c-.264-.039-.394-.152-.394-.34s.106-.282.321-.282a2.151,2.151,0,0,1,.234.015l.6.015.976.03.234-.015c.233-.012.412-.015.54-.015a.989.989,0,0,1,.728.44l13.382,15.808c.212.252.349.373.406.364.1-.012.149-.106.161-.288v-7.508l.015-2.047-.173-3.49a2.894,2.894,0,0,0-.722-1.829,4.124,4.124,0,0,0-2.071-.8c-.282-.049-.422-.173-.422-.37s.139-.282.422-.282a6.089,6.089,0,0,1,.609.042,26.134,26.134,0,0,0,2.69.109,9.033,9.033,0,0,0,1.44-.091,4.029,4.029,0,0,1,.713-.091c.252,0,.388.106.406.318.009.133-.088.227-.291.288a1.713,1.713,0,0,0-1.17.758,4.742,4.742,0,0,0-.282,1.986v1.637Z" transform="translate(-676.238 -294.886)" fill="#fff"/>
      <path id="Path_63" data-name="Path 63" d="M1020.621,294.72a6.591,6.591,0,0,1,2.632.47l1,.44a.629.629,0,0,0,.261.061.54.54,0,0,0,.349-.152l.2-.182a.189.189,0,0,1,.161-.061c.243-.009.364.237.364.743,0,.173.064.682.188,1.531l.234,1.562c.048.334.073.54.073.622,0,.312-.106.47-.312.47-.158,0-.315-.243-.476-.731a5.051,5.051,0,0,0-2.126-2.708,6.316,6.316,0,0,0-3.575-1.064,3.726,3.726,0,0,0-2.617.964,3.135,3.135,0,0,0-1.052,2.408,3.608,3.608,0,0,0,.682,2.2,3.963,3.963,0,0,0,1.3,1.155,35.885,35.885,0,0,0,3.466,1.322q5.376,1.833,5.376,6.016a6,6,0,0,1-1.98,4.64,7.238,7.238,0,0,1-5.076,1.8,10.373,10.373,0,0,1-2.465-.334,6.039,6.039,0,0,1-1.971-.773.917.917,0,0,1-.349-.388,7.621,7.621,0,0,1-.261-1.052c-.021-.082-.143-.54-.364-1.38a8.552,8.552,0,0,1-.379-1.941c0-.3.1-.449.3-.44.179.012.337.258.476.746a6.281,6.281,0,0,0,5.859,4.442,4.915,4.915,0,0,0,3.387-1.231,3.857,3.857,0,0,0,1.386-2.99,3.678,3.678,0,0,0-1.277-2.838,14.385,14.385,0,0,0-3.778-1.686,12.063,12.063,0,0,1-4.57-2.517,4.912,4.912,0,0,1-1.343-3.578,5.094,5.094,0,0,1,1.753-4,6.581,6.581,0,0,1,4.521-1.55Z" transform="translate(-728.558 -294.356)" fill="#fff"/>
      <path id="Path_64" data-name="Path 64" d="M82.136,396.892l.188,1.462.018.152-.018.061a.1.1,0,0,1-.088.061c-.045,0-.118-.082-.209-.255a3.3,3.3,0,0,0-2.966-1.992,3,3,0,0,0-2.35.955,3.76,3.76,0,0,0-.861,2.611,4.858,4.858,0,0,0,.955,3.111,2.994,2.994,0,0,0,2.459,1.207,3.428,3.428,0,0,0,1.725-.488,2.776,2.776,0,0,0,1.177-1.186c.1-.215.179-.324.233-.331s.094.036.094.115l-.006.067-.024.133-.133.746-.024.109c-.015.106-.106.215-.276.327a5.268,5.268,0,0,1-2.975.895,4.072,4.072,0,0,1-3.032-1.164,4.166,4.166,0,0,1-1.152-3.063,4.4,4.4,0,0,1,1.192-3.157,3.956,3.956,0,0,1,2.993-1.258,4.581,4.581,0,0,1,2.268.579l.233.127.094.042.1.036a.17.17,0,0,0,.088-.049.425.425,0,0,1,.176-.1C82.075,396.659,82.114,396.738,82.136,396.892Z" transform="translate(-74.87 -364.931)" fill="#fff"/>
      <path id="Path_65" data-name="Path 65" d="M105.288,400.072h3.448a.673.673,0,0,0,.327-.049c.045-.033.07-.106.07-.221v-2.086a1.864,1.864,0,0,0-.155-.892.849.849,0,0,0-.57-.361c-.118-.024-.173-.07-.17-.143s.052-.1.146-.1a3.769,3.769,0,0,1,.4.03,7.767,7.767,0,0,0,.819.042,7.1,7.1,0,0,0,.876-.036,1.954,1.954,0,0,1,.215-.024c.094,0,.139.039.139.118,0,.064-.045.1-.139.124l-.24.055a.463.463,0,0,0-.3.27,1.151,1.151,0,0,0-.121.54v5.892a1.648,1.648,0,0,0,.176.9.91.91,0,0,0,.673.306c.121.015.182.055.188.118.009.094-.045.143-.164.143a1.842,1.842,0,0,1-.3-.03,4.54,4.54,0,0,0-.585-.024l-.434-.006-.44.012q-.1,0-.282.018c-.243.021-.376.03-.4.03-.1,0-.146-.036-.139-.118s.07-.118.2-.136c.409-.073.613-.422.613-1.043l.006-.237v-2.241a.618.618,0,0,0-.052-.337.687.687,0,0,0-.352-.049h-3.442a.768.768,0,0,0-.415.07c-.055.046-.082.167-.082.358V403.2a1.509,1.509,0,0,0,.194.888,1,1,0,0,0,.719.315c.146.015.218.067.221.155s-.052.124-.17.124a2.658,2.658,0,0,1-.285-.027,5.406,5.406,0,0,0-.7-.027l-.491-.006-.385.012a3.606,3.606,0,0,0-.367.021c-.2.018-.324.027-.367.027-.1,0-.146-.039-.146-.112s.052-.118.152-.143l.291-.073a.5.5,0,0,0,.352-.4,5.112,5.112,0,0,0,.094-1.2v-5.24a1.217,1.217,0,0,0-.194-.77,1.086,1.086,0,0,0-.688-.318c-.112-.015-.17-.061-.17-.13s.052-.124.152-.118c.073,0,.191.015.352.036a9.128,9.128,0,0,0,1.07.055,5.671,5.671,0,0,0,.776-.049,1.924,1.924,0,0,1,.246-.024c.112,0,.17.042.17.124,0,.064-.052.109-.158.136a.9.9,0,0,0-.525.3,1.152,1.152,0,0,0-.133.646v2.183c0,.233.021.37.067.415s.179.073.422.073Z" transform="translate(-94.365 -365.048)" fill="#fff"/>
      <path id="Path_66" data-name="Path 66" d="M135.757,401H133.64a1.174,1.174,0,0,0-.537.073,1.365,1.365,0,0,0-.282.488l-.382.9a2.708,2.708,0,0,0-.261.916.548.548,0,0,0,.136.415,1.245,1.245,0,0,0,.54.218c.118.024.176.073.182.143s-.052.1-.164.1c-.042,0-.109,0-.2-.006l-.561-.033c-.188-.009-.4-.015-.646-.015q-.168,0-.264.009c-.2.024-.306.033-.327.033-.106,0-.158-.036-.158-.112a.127.127,0,0,1,.1-.13l.215-.067a.847.847,0,0,0,.315-.3,2.7,2.7,0,0,0,.327-.54l.17-.4,3-6.956c.052-.121.106-.182.17-.182s.115.058.158.176l2.514,6.714.127.331a3,3,0,0,0,.455.919,1.452,1.452,0,0,0,.737.282c.121.024.179.073.176.149s-.058.1-.164.1c-.036,0-.109,0-.221-.012-.2-.021-.564-.03-1.083-.03a8.086,8.086,0,0,0-1.016.036,1.158,1.158,0,0,1-.182.024c-.1,0-.152-.042-.152-.124,0-.064.049-.106.146-.124l.182-.042c.194-.039.291-.179.291-.415a4.782,4.782,0,0,0-.358-1.289l-.291-.807a1.053,1.053,0,0,0-.194-.388.869.869,0,0,0-.388-.049Zm.07-.979-.919-2.414-.045-.127c-.045-.13-.1-.2-.152-.2-.027,0-.058.033-.094.115l-1.14,2.638a.732.732,0,0,0-.076.224c0,.106.091.158.27.158l.158.006h1.765c.194,0,.291-.052.291-.152a.5.5,0,0,0-.03-.139Z" transform="translate(-113.784 -364.611)" fill="#fff"/>
      <path id="Path_67" data-name="Path 67" d="M161.309,398.176v4.57a4.036,4.036,0,0,0,.1,1.131.956.956,0,0,0,.288.44,1.227,1.227,0,0,0,.54.182c.194.027.291.079.291.149,0,.1-.061.143-.182.143a1.338,1.338,0,0,1-.221-.021,4.772,4.772,0,0,0-.619-.027l-.846-.012-.688.042a2.7,2.7,0,0,1-.282.018c-.106,0-.158-.042-.158-.124s.061-.118.182-.136a.746.746,0,0,0,.573-.321,2.578,2.578,0,0,0,.127-1.016v-5.225a2.1,2.1,0,0,0-.167-1.019,1,1,0,0,0-.71-.355c-.121-.024-.182-.073-.188-.143,0-.088.052-.13.17-.13.03,0,.067,0,.106.006a9.337,9.337,0,0,0,1.134.055c.288,0,.537-.006.743-.021l.391-.033c.073,0,.121-.006.146-.006.106,0,.158.036.158.112s-.052.124-.152.161l-.3.121C161.454,396.832,161.309,397.318,161.309,398.176Z" transform="translate(-133.732 -365.147)" fill="#fff"/>
      <path id="Path_68" data-name="Path 68" d="M184.917,396.331H182.8a1.174,1.174,0,0,0-.537.073,1.365,1.365,0,0,0-.282.488l-.382.9a2.708,2.708,0,0,0-.261.916.548.548,0,0,0,.136.415,1.245,1.245,0,0,0,.54.218c.118.024.176.073.182.143s-.052.1-.164.1c-.042,0-.109,0-.2-.006l-.561-.033c-.188-.009-.4-.015-.646-.015q-.168,0-.264.009c-.2.024-.306.033-.327.033-.106,0-.158-.036-.158-.112a.127.127,0,0,1,.1-.13l.215-.067a.847.847,0,0,0,.315-.3,2.7,2.7,0,0,0,.328-.54l.17-.4,3-6.956c.052-.121.106-.182.17-.182s.115.058.158.176l2.514,6.714.127.331a3,3,0,0,0,.455.919,1.452,1.452,0,0,0,.737.282c.121.024.179.073.176.149s-.058.1-.164.1c-.036,0-.109,0-.221-.012-.2-.021-.564-.03-1.083-.03a8.086,8.086,0,0,0-1.016.036,1.158,1.158,0,0,1-.182.024c-.1,0-.152-.042-.152-.124,0-.064.049-.106.146-.124l.182-.042c.194-.039.291-.179.291-.415a4.782,4.782,0,0,0-.358-1.289l-.291-.807a1.054,1.054,0,0,0-.194-.388.879.879,0,0,0-.388-.049Zm.07-.979-.919-2.414-.045-.127c-.046-.13-.1-.2-.152-.2-.027,0-.058.033-.094.115l-1.14,2.638a.732.732,0,0,0-.076.224c0,.106.091.158.27.158l.158.006h1.765c.194,0,.291-.052.291-.152a.5.5,0,0,0-.03-.139Zm-1.058-5.107-.761-.873-.091-.109a.283.283,0,0,1-.088-.176.209.209,0,0,1,.237-.237,3.553,3.553,0,0,1,.543.021.224.224,0,0,1,.143.149l.133.321c.03.076.106.246.221.5l.121.279a.628.628,0,0,1,.064.237c0,.085-.036.127-.112.127a1.025,1.025,0,0,1-.409-.243Z" transform="translate(-148.037 -359.942)" fill="#fff"/>
      <path id="Path_69" data-name="Path 69" d="M219.174,402.8v-4.712a2.4,2.4,0,0,0-.227-1.189.765.765,0,0,0-.707-.382c-.161,0-.24-.042-.24-.13s.079-.136.233-.136c.03,0,.13,0,.3.012.118.009.279.012.485.012.288,0,.509,0,.667-.012l.655-.042c.206-.012.4-.018.585-.018a3.4,3.4,0,0,1,2.032.537,1.852,1.852,0,0,1-.03,2.984l-.252.182q-.086.055-.082.091c0,.039.106.085.3.127a1.779,1.779,0,0,1,1.058.731,2.223,2.223,0,0,1,.415,1.328,2.4,2.4,0,0,1-.791,1.847,2.857,2.857,0,0,1-2.013.728l-.449-.018-.543-.024-.473-.03c-.312-.021-.558-.03-.743-.03a4.027,4.027,0,0,0-.467.024,3.574,3.574,0,0,1-.4.036c-.109,0-.164-.042-.164-.13,0-.067.058-.109.176-.124a.652.652,0,0,0,.591-.573,6.73,6.73,0,0,0,.079-1.086Zm1.216-2.429a.543.543,0,0,0-.267.039q-.055.041-.055.191v2.811l-.012.279.036.237a.594.594,0,0,0,.425.373,3.607,3.607,0,0,0,1.055.112,1.94,1.94,0,0,0,1.428-.5,1.874,1.874,0,0,0,.509-1.4,2.183,2.183,0,0,0-.558-1.534,1.83,1.83,0,0,0-1.407-.61H220.39Zm.076-.428h.967q1.469,0,1.471-1.377a1.862,1.862,0,0,0-.628-1.425,2.2,2.2,0,0,0-1.547-.579.839.839,0,0,0-.534.118.7.7,0,0,0-.127.5v2.444c0,.143.021.23.067.267A.61.61,0,0,0,220.465,399.942Z" transform="translate(-174.598 -365.064)" fill="#fff"/>
      <path id="Path_70" data-name="Path 70" d="M244.937,401H242.82a1.174,1.174,0,0,0-.537.073,1.365,1.365,0,0,0-.282.488l-.382.9a2.708,2.708,0,0,0-.261.916.548.548,0,0,0,.136.415,1.245,1.245,0,0,0,.54.218c.118.024.176.073.182.143s-.052.1-.164.1c-.042,0-.109,0-.2-.006l-.561-.033c-.188-.009-.4-.015-.646-.015q-.168,0-.264.009c-.2.024-.306.033-.327.033-.106,0-.158-.036-.158-.112a.127.127,0,0,1,.1-.13l.215-.067a.847.847,0,0,0,.315-.3,2.7,2.7,0,0,0,.327-.54l.17-.4,3-6.956c.052-.121.106-.182.17-.182s.115.058.158.176l2.514,6.714.127.331a3,3,0,0,0,.455.919,1.452,1.452,0,0,0,.737.282c.121.024.179.073.176.149s-.058.1-.164.1c-.036,0-.109,0-.221-.012-.2-.021-.564-.03-1.083-.03a8.086,8.086,0,0,0-1.016.036,1.158,1.158,0,0,1-.182.024c-.1,0-.152-.042-.152-.124,0-.064.049-.106.146-.124l.182-.042c.194-.039.291-.179.291-.415a4.782,4.782,0,0,0-.358-1.289l-.291-.807a1.054,1.054,0,0,0-.194-.388.869.869,0,0,0-.388-.049Zm.073-.979-.919-2.414-.045-.127c-.046-.13-.1-.2-.152-.2-.027,0-.058.033-.094.115l-1.14,2.638a.732.732,0,0,0-.076.224c0,.106.091.158.27.158l.158.006h1.765c.194,0,.291-.052.291-.152a.5.5,0,0,0-.03-.139Z" transform="translate(-189.857 -364.611)" fill="#fff"/>
      <path id="Path_71" data-name="Path 71" d="M272.5,400.562l1.613,2.48.188.291q.746,1.142,1.38,1.186l.188.012c.07,0,.1.033.1.088s-.091.118-.261.167a2.088,2.088,0,0,1-.576.076,1.574,1.574,0,0,1-.943-.3,3.524,3.524,0,0,1-.849-.986l-1.456-2.317-.082-.133a.482.482,0,0,0-.455-.249h-.776l-.127.024c-.046.027-.07.094-.07.2v1.907l.006.246a3.393,3.393,0,0,0,.049.719.674.674,0,0,0,.237.346,1.442,1.442,0,0,0,.776.264c.139.015.212.061.215.136s-.058.118-.194.118q-.082,0-.346-.027a7.251,7.251,0,0,0-.743-.027l-.561-.006-.3.006a4.3,4.3,0,0,0-.479.03c-.152.015-.258.024-.315.024-.1,0-.146-.042-.146-.124q0-.091.146-.118a.762.762,0,0,0,.613-.443,4.247,4.247,0,0,0,.146-1.383v-4.382l-.012-.634c0-.634-.212-.989-.637-1.061l-.276-.042c-.124-.024-.188-.073-.188-.143s.067-.124.2-.124c.03,0,.167.009.409.024.139.012.312.018.522.018.179,0,.485-.015.919-.042.312-.021.585-.03.825-.03a3.292,3.292,0,0,1,2.029.528,1.864,1.864,0,0,1,.682,1.571,2.328,2.328,0,0,1-1.446,2.114Zm-1.716-.13h.661a1.52,1.52,0,0,0,1.647-1.644,1.936,1.936,0,0,0-.6-1.459,2.107,2.107,0,0,0-1.522-.57.722.722,0,0,0-.476.118.567.567,0,0,0-.13.431l.006.2v2.484a.588.588,0,0,0,.073.364A.527.527,0,0,0,270.783,400.432Z" transform="translate(-209.565 -365.168)" fill="#fff"/>
      <path id="Path_72" data-name="Path 72" d="M298.379,400.562l1.613,2.48.188.291q.746,1.142,1.38,1.186l.188.012c.07,0,.1.033.1.088s-.091.118-.261.167a2.088,2.088,0,0,1-.576.076,1.574,1.574,0,0,1-.943-.3,3.524,3.524,0,0,1-.849-.986l-1.456-2.317-.082-.133a.482.482,0,0,0-.455-.249h-.776l-.127.024c-.046.027-.07.094-.07.2v1.907l.006.246a3.393,3.393,0,0,0,.049.719.674.674,0,0,0,.237.346,1.442,1.442,0,0,0,.776.264c.139.015.212.061.215.136s-.058.118-.194.118q-.082,0-.346-.027a7.251,7.251,0,0,0-.743-.027l-.561-.006-.3.006a4.3,4.3,0,0,0-.479.03c-.152.015-.258.024-.315.024-.1,0-.146-.042-.146-.124q0-.091.146-.118a.762.762,0,0,0,.613-.443,4.247,4.247,0,0,0,.146-1.383v-4.382l-.012-.634c0-.634-.212-.989-.637-1.061l-.276-.042c-.124-.024-.188-.073-.188-.143s.067-.124.2-.124c.03,0,.167.009.409.024.139.012.312.018.522.018.179,0,.485-.015.919-.042.312-.021.585-.03.825-.03a3.292,3.292,0,0,1,2.029.528,1.864,1.864,0,0,1,.682,1.571,2.328,2.328,0,0,1-1.446,2.114Zm-1.716-.13h.661a1.52,1.52,0,0,0,1.647-1.644,1.936,1.936,0,0,0-.6-1.459,2.107,2.107,0,0,0-1.522-.57.722.722,0,0,0-.476.118.567.567,0,0,0-.13.431l.006.2v2.484a.588.588,0,0,0,.073.364A.527.527,0,0,0,296.663,400.432Z" transform="translate(-227.581 -365.168)" fill="#fff"/>
      <path id="Path_73" data-name="Path 73" d="M322.249,398.176v4.57a4.036,4.036,0,0,0,.1,1.131.956.956,0,0,0,.288.44,1.227,1.227,0,0,0,.54.182c.194.027.291.079.291.149,0,.1-.061.143-.182.143a1.338,1.338,0,0,1-.221-.021,4.772,4.772,0,0,0-.619-.027l-.846-.012-.688.042a2.7,2.7,0,0,1-.282.018c-.106,0-.158-.042-.158-.124s.061-.118.182-.136a.746.746,0,0,0,.573-.321,2.578,2.578,0,0,0,.127-1.016v-5.225a2.1,2.1,0,0,0-.167-1.019,1,1,0,0,0-.71-.355c-.121-.024-.182-.073-.188-.143,0-.088.052-.13.17-.13.03,0,.067,0,.106.006a9.337,9.337,0,0,0,1.134.055c.288,0,.537-.006.743-.021l.391-.033c.073,0,.121-.006.146-.006.106,0,.158.036.158.112s-.052.124-.152.161l-.3.121c-.288.118-.434.6-.434,1.462Z" transform="translate(-245.718 -365.147)" fill="#fff"/>
      <path id="Path_74" data-name="Path 74" d="M335.078,403.988a4.377,4.377,0,0,1-1.738-3.566,4.628,4.628,0,0,1,.952-2.944,3.83,3.83,0,0,1,3.19-1.437,3.93,3.93,0,0,1,2.972,1.2,4.317,4.317,0,0,1,1.149,3.114,4.782,4.782,0,0,1-.531,2.25,3.854,3.854,0,0,1-1.456,1.568,4.616,4.616,0,0,1-1.386.506c.394.209.667.361.825.458l.543.373.443.3a1.667,1.667,0,0,0,.834.343,1.7,1.7,0,0,0,.852-.206.458.458,0,0,1,.164-.067.089.089,0,0,1,.106.091c.009.149-.176.306-.552.47a2.709,2.709,0,0,1-1.083.246,3.326,3.326,0,0,1-1.653-.579c-.567-.346-.9-.549-1-.6l-.979-.543a3.164,3.164,0,0,0-1.286-.482.921.921,0,0,0-.655.3,1.273,1.273,0,0,0-.361.725c-.024.146-.073.218-.143.218-.1,0-.152-.067-.143-.194a1.947,1.947,0,0,1,.3-.925,1.4,1.4,0,0,1,.637-.613Zm2.062-7.587a2.55,2.55,0,0,0-2.071.967,3.828,3.828,0,0,0-.8,2.517,4.644,4.644,0,0,0,1.352,3.53,3.231,3.231,0,0,0,2.265.958,2.581,2.581,0,0,0,2.08-.946,3.729,3.729,0,0,0,.794-2.474,5.018,5.018,0,0,0-1.055-3.223A3.185,3.185,0,0,0,337.14,396.4Z" transform="translate(-254.799 -364.952)" fill="#fff"/>
      <path id="Path_75" data-name="Path 75" d="M370.334,401.156V398a2.2,2.2,0,0,0-.209-1.1.876.876,0,0,0-.713-.394c-.112-.012-.17-.055-.17-.13s.039-.127.115-.124a3.308,3.308,0,0,1,.373.048,3.335,3.335,0,0,0,.531.036c.437,0,.7-.006.8-.018.136-.012.221-.018.258-.018a.1.1,0,0,1,.112.106c0,.061-.039.106-.121.143a.779.779,0,0,0-.461.428,3.362,3.362,0,0,0-.106,1.037v3.014a4.377,4.377,0,0,1-.637,2.559,2.744,2.744,0,0,1-1.155.9,4.067,4.067,0,0,1-3.393-.064,2.561,2.561,0,0,1-1.161-1.092,4.455,4.455,0,0,1-.415-2.065v-3.1l-.012-.349a1.662,1.662,0,0,0-.173-.9.99.99,0,0,0-.691-.324c-.106-.015-.158-.058-.158-.124,0-.094.073-.143.221-.143.1,0,.23,0,.4.012s.309.018.391.018l.449-.006h.443c.046,0,.155-.009.328-.024.143-.012.243-.018.3-.018.088,0,.133.03.133.094s-.064.124-.188.149a.618.618,0,0,0-.452.306,2.024,2.024,0,0,0-.115.819l.012.4v3.069a4.043,4.043,0,0,0,.467,2.241,2.505,2.505,0,0,0,2.217.949,2.611,2.611,0,0,0,2.083-.794,3.538,3.538,0,0,0,.694-2.393Z" transform="translate(-275.412 -365.098)" fill="#fff"/>
      <path id="Path_76" data-name="Path 76" d="M396.155,397.319v2.459a.668.668,0,0,0,.049.34c.033.039.133.058.3.058h.9a5.072,5.072,0,0,0,.97-.073.784.784,0,0,0,.409-.176,1.251,1.251,0,0,0,.17-.512c.021-.1.07-.152.149-.146s.112.058.112.164c0,.027,0,.073-.006.133-.033.394-.052.752-.052,1.077,0,.249.012.491.036.737a1.679,1.679,0,0,1,.012.176c0,.1-.036.152-.112.152a.14.14,0,0,1-.149-.133l-.036-.17a.805.805,0,0,0-.279-.555,1.3,1.3,0,0,0-.713-.146h-1.289a.814.814,0,0,0-.382.061.268.268,0,0,0-.1.246l.006.2v2.247c0,.346.061.561.179.646a1.9,1.9,0,0,0,.9.127q2.292,0,2.947-1.08c.042-.07.088-.106.13-.109.073,0,.109.048.109.158a1.636,1.636,0,0,1-.428.94,1.585,1.585,0,0,1-1.3.655c-.112,0-.264-.009-.455-.024q-1.114-.109-1.847-.109a9.734,9.734,0,0,0-1.443.073,2.107,2.107,0,0,1-.3.042c-.124,0-.188-.042-.188-.13,0-.067.052-.115.152-.143l.221-.067c.279-.082.422-.367.422-.855l.006-.4v-5.158a2.487,2.487,0,0,0-.185-1.174.772.772,0,0,0-.716-.3c-.112,0-.17-.039-.17-.112,0-.112.088-.167.264-.167a3.152,3.152,0,0,1,.391.03,18.041,18.041,0,0,0,2.01.1c.476,0,.895-.009,1.261-.024l.831-.042c.23-.009.37-.015.422-.024a1.89,1.89,0,0,1,.233-.024c.127,0,.194.058.194.176a.7.7,0,0,1-.018.139c-.012.058-.027.218-.045.485l-.024.358a2.5,2.5,0,0,1-.061.44.135.135,0,0,1-.13.094c-.076,0-.112-.058-.112-.182v-.158a1,1,0,0,0-.07-.37.624.624,0,0,0-.449-.367,5.6,5.6,0,0,0-1.243-.091h-.916a.762.762,0,0,0-.467.094.574.574,0,0,0-.106.418Z" transform="translate(-297.161 -365.112)" fill="#fff"/>
      <path id="Path_77" data-name="Path 77" d="M419.666,396.04a2.675,2.675,0,0,1,1.058.188l.4.176a.27.27,0,0,0,.106.024.219.219,0,0,0,.139-.061l.082-.073a.078.078,0,0,1,.064-.024c.1,0,.146.1.146.3,0,.07.024.273.076.616l.094.628c.018.133.03.218.03.249,0,.127-.042.188-.124.188-.064,0-.127-.1-.191-.294a2.036,2.036,0,0,0-.852-1.089,2.534,2.534,0,0,0-1.437-.428,1.5,1.5,0,0,0-1.052.388,1.257,1.257,0,0,0-.422.967,1.456,1.456,0,0,0,.273.885,1.572,1.572,0,0,0,.522.464,13.766,13.766,0,0,0,1.392.531q2.161.737,2.159,2.417a2.4,2.4,0,0,1-.794,1.862,2.917,2.917,0,0,1-2.041.725,4.222,4.222,0,0,1-.992-.133,2.468,2.468,0,0,1-.791-.309.365.365,0,0,1-.139-.155,3.17,3.17,0,0,1-.106-.425q-.014-.05-.146-.555a3.486,3.486,0,0,1-.152-.779c0-.121.039-.182.118-.176s.136.1.191.3a2.35,2.35,0,0,0,.885,1.271,2.376,2.376,0,0,0,1.468.512,1.976,1.976,0,0,0,1.362-.494,1.556,1.556,0,0,0,.558-1.2,1.474,1.474,0,0,0-.512-1.14,5.768,5.768,0,0,0-1.516-.676,4.785,4.785,0,0,1-1.835-1.01,1.971,1.971,0,0,1-.54-1.437,2.042,2.042,0,0,1,.7-1.607,2.629,2.629,0,0,1,1.813-.622Z" transform="translate(-313.02 -364.952)" fill="#fff"/>
      <path id="Path_78" data-name="Path 78" d="M447.677,412.74c.042,0,.064.109.064.324a1.258,1.258,0,0,1-.039.434.719.719,0,0,1-.327.164c-.27.094-.494.176-.679.243-.434.164-.713.261-.843.294a1.008,1.008,0,0,0-.227.091.264.264,0,0,1-.112.055c-.055.009-.082-.061-.082-.206a1.234,1.234,0,0,1,.067-.537.986.986,0,0,1,.446-.221c.094-.027.3-.1.625-.227.127-.049.34-.124.631-.227a4.257,4.257,0,0,0,.4-.161Z" transform="translate(-332.834 -376.588)" fill="#fff"/>
      <path id="Path_79" data-name="Path 79" d="M471.756,396.892l.188,1.462.018.152-.018.061a.1.1,0,0,1-.088.061c-.045,0-.118-.082-.209-.255a3.3,3.3,0,0,0-2.966-1.992,3,3,0,0,0-2.35.955,3.76,3.76,0,0,0-.861,2.611,4.858,4.858,0,0,0,.955,3.111,2.994,2.994,0,0,0,2.459,1.207,3.428,3.428,0,0,0,1.725-.488,2.776,2.776,0,0,0,1.177-1.186c.1-.215.179-.324.234-.331s.094.036.094.115l-.006.067-.024.133-.133.746-.024.109c-.015.106-.106.215-.276.327a5.268,5.268,0,0,1-2.975.895,4.072,4.072,0,0,1-3.032-1.164,4.166,4.166,0,0,1-1.152-3.063,4.4,4.4,0,0,1,1.192-3.157,3.956,3.956,0,0,1,2.993-1.258,4.582,4.582,0,0,1,2.268.579l.233.127.094.042.1.036a.17.17,0,0,0,.088-.049.425.425,0,0,1,.176-.1C471.695,396.659,471.734,396.738,471.756,396.892Z" transform="translate(-346.098 -364.931)" fill="#fff"/>
      <path id="Path_80" data-name="Path 80" d="M495.087,401H492.97a1.174,1.174,0,0,0-.537.073,1.365,1.365,0,0,0-.282.488l-.382.9a2.708,2.708,0,0,0-.261.916.548.548,0,0,0,.136.415,1.245,1.245,0,0,0,.54.218c.118.024.176.073.182.143s-.052.1-.164.1c-.042,0-.109,0-.2-.006l-.561-.033c-.188-.009-.4-.015-.646-.015q-.168,0-.264.009c-.2.024-.306.033-.327.033-.106,0-.158-.036-.158-.112a.127.127,0,0,1,.1-.13l.215-.067a.847.847,0,0,0,.315-.3,2.7,2.7,0,0,0,.327-.54l.17-.4,3-6.956c.052-.121.106-.182.17-.182s.115.058.158.176l2.514,6.714.127.331a3,3,0,0,0,.455.919,1.452,1.452,0,0,0,.737.282c.121.024.179.073.176.149s-.058.1-.164.1c-.036,0-.109,0-.221-.012-.2-.021-.564-.03-1.083-.03a8.087,8.087,0,0,0-1.016.036,1.157,1.157,0,0,1-.182.024c-.1,0-.152-.042-.152-.124,0-.064.049-.106.146-.124l.182-.042c.194-.039.291-.179.291-.415a4.781,4.781,0,0,0-.358-1.289l-.291-.807a1.054,1.054,0,0,0-.194-.388.879.879,0,0,0-.388-.049Zm.07-.979-.919-2.414-.045-.127c-.045-.13-.1-.2-.152-.2-.027,0-.058.033-.094.115l-1.14,2.638a.732.732,0,0,0-.076.224c0,.106.091.158.27.158l.158.006h1.765c.194,0,.291-.052.291-.152a.5.5,0,0,0-.03-.139Z" transform="translate(-363.891 -364.611)" fill="#fff"/>
      <path id="Path_81" data-name="Path 81" d="M514.829,397.847l2.247,5.379c.055.133.106.2.152.194s.109-.115.209-.349l.094-.224,1.283-3.175a9.919,9.919,0,0,0,.828-2.632.386.386,0,0,0-.088-.285.773.773,0,0,0-.358-.136c-.218-.042-.324-.1-.321-.167s.07-.112.194-.112l.17.006c.288.015.464.024.522.024H520l.264-.006h.146l.5-.006c.079,0,.118.036.118.106s-.042.1-.121.13a1.162,1.162,0,0,0-.637.707l-.158.4-2.905,7.093c-.082.2-.161.3-.237.3s-.164-.1-.249-.306l-2.963-7.159a2.755,2.755,0,0,0-.379-.688.773.773,0,0,0-.461-.249,2.262,2.262,0,0,1-.361-.088.1.1,0,0,1-.055-.1q0-.118.164-.118a1.7,1.7,0,0,1,.17.012c.067.009.264.012.591.012l.555.006.391-.006c.082,0,.206-.009.373-.024a1.559,1.559,0,0,1,.164-.012c.106,0,.158.036.158.112,0,.055-.039.1-.118.13a.91.91,0,0,0-.3.155.327.327,0,0,0-.061.221,2.571,2.571,0,0,0,.243.861Z" transform="translate(-379.519 -365.161)" fill="#fff"/>
      <path id="Path_82" data-name="Path 82" d="M543.245,397.319v2.459a.668.668,0,0,0,.049.34c.033.039.133.058.3.058h.9a5.072,5.072,0,0,0,.97-.073.784.784,0,0,0,.409-.176,1.252,1.252,0,0,0,.17-.512c.021-.1.07-.152.149-.146s.112.058.112.164c0,.027,0,.073-.006.133-.033.394-.052.752-.052,1.077,0,.249.012.491.036.737a1.679,1.679,0,0,1,.012.176c0,.1-.036.152-.112.152a.14.14,0,0,1-.149-.133L546,401.4a.806.806,0,0,0-.279-.555,1.3,1.3,0,0,0-.713-.146h-1.289a.814.814,0,0,0-.382.061.268.268,0,0,0-.1.246l.006.2v2.247c0,.346.061.561.179.646a1.9,1.9,0,0,0,.9.127q2.292,0,2.947-1.08c.042-.07.088-.106.13-.109.073,0,.109.048.109.158a1.636,1.636,0,0,1-.428.94,1.585,1.585,0,0,1-1.3.655c-.112,0-.264-.009-.455-.024q-1.114-.109-1.847-.109a9.733,9.733,0,0,0-1.443.073,2.107,2.107,0,0,1-.3.042c-.124,0-.188-.042-.188-.13,0-.067.052-.115.152-.143l.221-.067c.279-.082.422-.367.422-.855l.006-.4v-5.158a2.487,2.487,0,0,0-.185-1.174.772.772,0,0,0-.716-.3c-.112,0-.17-.039-.17-.112,0-.112.088-.167.264-.167a3.152,3.152,0,0,1,.391.03,18.042,18.042,0,0,0,2.01.1c.476,0,.895-.009,1.261-.024l.831-.042c.23-.009.37-.015.422-.024a1.888,1.888,0,0,1,.233-.024c.127,0,.194.058.194.176a.7.7,0,0,1-.018.139c-.012.058-.027.218-.045.485l-.024.358a2.5,2.5,0,0,1-.061.44.135.135,0,0,1-.13.094c-.076,0-.112-.058-.112-.182v-.158a1,1,0,0,0-.07-.37.624.624,0,0,0-.449-.367,5.6,5.6,0,0,0-1.243-.091h-.916a.763.763,0,0,0-.467.094c-.073.061-.106.2-.106.418Z" transform="translate(-399.556 -365.112)" fill="#fff"/>
      <path id="Path_83" data-name="Path 83" d="M577,396.331H574.88a1.174,1.174,0,0,0-.537.073,1.364,1.364,0,0,0-.282.488l-.382.9a2.708,2.708,0,0,0-.261.916.548.548,0,0,0,.136.415,1.245,1.245,0,0,0,.54.218c.118.024.176.073.182.143s-.052.1-.164.1c-.042,0-.109,0-.2-.006l-.561-.033c-.188-.009-.4-.015-.646-.015q-.168,0-.264.009c-.2.024-.306.033-.328.033-.106,0-.158-.036-.158-.112a.127.127,0,0,1,.1-.13l.215-.067a.847.847,0,0,0,.315-.3,2.7,2.7,0,0,0,.328-.54l.17-.4,3-6.956c.052-.121.106-.182.17-.182s.115.058.158.176l2.514,6.714.127.331a3,3,0,0,0,.455.919,1.452,1.452,0,0,0,.737.282c.121.024.179.073.176.149s-.058.1-.164.1c-.036,0-.109,0-.221-.012-.2-.021-.564-.03-1.083-.03a8.085,8.085,0,0,0-1.016.036,1.157,1.157,0,0,1-.182.024c-.1,0-.152-.042-.152-.124,0-.064.049-.106.146-.124l.182-.042c.194-.039.291-.179.291-.415a4.779,4.779,0,0,0-.358-1.289l-.291-.807a1.053,1.053,0,0,0-.194-.388.869.869,0,0,0-.388-.049Zm.07-.979-.919-2.414-.045-.127c-.045-.13-.1-.2-.152-.2-.027,0-.058.033-.094.115l-1.14,2.638a.731.731,0,0,0-.076.224c0,.106.091.158.27.158l.158.006h1.765c.194,0,.291-.052.291-.152a.5.5,0,0,0-.03-.139Zm-1.055-5.107-.761-.873-.091-.109a.283.283,0,0,1-.088-.176.209.209,0,0,1,.237-.237,3.553,3.553,0,0,1,.543.021.224.224,0,0,1,.142.149l.133.321c.03.076.106.246.221.5l.121.279a.628.628,0,0,1,.064.237c0,.085-.036.127-.112.127a1,1,0,0,1-.409-.243Z" transform="translate(-420.911 -359.942)" fill="#fff"/>
      <path id="Path_84" data-name="Path 84" d="M610.529,397.847l2.247,5.379c.055.133.106.2.152.194s.109-.115.209-.349l.094-.224,1.283-3.175a9.918,9.918,0,0,0,.828-2.632.386.386,0,0,0-.088-.285.773.773,0,0,0-.358-.136c-.218-.042-.324-.1-.321-.167s.07-.112.194-.112l.17.006c.288.015.464.024.522.024h.24l.264-.006h.146l.5-.006c.079,0,.118.036.118.106s-.039.1-.121.13a1.162,1.162,0,0,0-.637.707l-.158.4-2.905,7.093c-.082.2-.161.3-.237.3s-.164-.1-.249-.306l-2.963-7.159a2.756,2.756,0,0,0-.379-.688.773.773,0,0,0-.461-.249,2.262,2.262,0,0,1-.361-.088.1.1,0,0,1-.055-.1q0-.118.164-.118a1.7,1.7,0,0,1,.17.012c.067.009.264.012.591.012l.555.006.391-.006c.082,0,.206-.009.373-.024a1.559,1.559,0,0,1,.164-.012c.106,0,.158.036.158.112,0,.055-.039.1-.118.13a.909.909,0,0,0-.3.155.327.327,0,0,0-.061.221,2.5,2.5,0,0,0,.243.861Z" transform="translate(-446.139 -365.161)" fill="#fff"/>
      <path id="Path_85" data-name="Path 85" d="M638.969,398.176v4.57a4.039,4.039,0,0,0,.1,1.131.956.956,0,0,0,.288.44,1.227,1.227,0,0,0,.54.182c.194.027.291.079.291.149,0,.1-.061.143-.182.143a1.338,1.338,0,0,1-.221-.021,4.772,4.772,0,0,0-.619-.027l-.846-.012-.688.042a2.7,2.7,0,0,1-.282.018c-.106,0-.158-.042-.158-.124s.061-.118.182-.136a.746.746,0,0,0,.573-.321,2.577,2.577,0,0,0,.127-1.016v-5.225a2.1,2.1,0,0,0-.167-1.019,1,1,0,0,0-.71-.355c-.121-.024-.182-.073-.188-.143,0-.088.052-.13.17-.13.03,0,.067,0,.106.006a9.337,9.337,0,0,0,1.134.055c.288,0,.537-.006.743-.021l.391-.033c.073,0,.121-.006.146-.006.106,0,.158.036.158.112s-.052.124-.152.161l-.3.121C639.114,396.832,638.969,397.318,638.969,398.176Z" transform="translate(-466.201 -365.147)" fill="#fff"/>
      <path id="Path_86" data-name="Path 86" d="M656.2,398.755v5.107a6.164,6.164,0,0,1-.03.837.148.148,0,0,1-.164.143.187.187,0,0,1-.133-.055l-.127-.158-4.925-5.874-.058-.067a.113.113,0,0,0-.082-.036c-.073,0-.112.091-.112.273v4.136l-.006.258.018.434a.9.9,0,0,0,.2.555,1.214,1.214,0,0,0,.619.224c.127.015.194.067.194.155a.106.106,0,0,1-.121.118,1.225,1.225,0,0,1-.176-.012q-.064-.014-.509-.036l-.6-.03-.282.012a3.294,3.294,0,0,0-.434.027,1.585,1.585,0,0,1-.215.021c-.1,0-.155-.036-.164-.112,0-.061.052-.109.164-.149a1.2,1.2,0,0,0,.664-.473,1.98,1.98,0,0,0,.173-.955v-4.145a3.564,3.564,0,0,0-.321-1.662,1.217,1.217,0,0,0-.928-.691c-.106-.015-.158-.061-.158-.136s.042-.112.127-.112c.018,0,.052,0,.094.006l.24.006.391.012.094-.006c.094,0,.167-.006.215-.006a.394.394,0,0,1,.291.176l5.376,6.35c.085.1.139.152.164.146.039,0,.061-.042.064-.115V399.9l.006-.822-.07-1.4a1.171,1.171,0,0,0-.288-.734,1.645,1.645,0,0,0-.834-.321c-.112-.021-.17-.07-.17-.149s.058-.112.17-.112q.077,0,.246.018a10.12,10.12,0,0,0,1.083.046,3.653,3.653,0,0,0,.579-.036,1.637,1.637,0,0,1,.285-.036q.15,0,.164.127c0,.052-.036.091-.118.115a.7.7,0,0,0-.47.3,1.9,1.9,0,0,0-.115.8v.658Z" transform="translate(-474.326 -365.168)" fill="#fff"/>
      <path id="Path_87" data-name="Path 87" d="M681.546,396.04a2.675,2.675,0,0,1,1.058.188l.4.176a.27.27,0,0,0,.106.024.219.219,0,0,0,.14-.061l.082-.073a.078.078,0,0,1,.064-.024c.1,0,.146.1.146.3,0,.07.024.273.076.616l.094.628c.018.133.03.218.03.249,0,.127-.042.188-.124.188-.064,0-.127-.1-.191-.294a2.036,2.036,0,0,0-.852-1.089,2.534,2.534,0,0,0-1.437-.428,1.5,1.5,0,0,0-1.052.388,1.258,1.258,0,0,0-.422.967,1.456,1.456,0,0,0,.273.885,1.571,1.571,0,0,0,.522.464,13.763,13.763,0,0,0,1.392.531q2.161.737,2.159,2.417a2.4,2.4,0,0,1-.794,1.862,2.917,2.917,0,0,1-2.041.725,4.222,4.222,0,0,1-.992-.133,2.468,2.468,0,0,1-.791-.309.365.365,0,0,1-.14-.155,3.175,3.175,0,0,1-.106-.425q-.014-.05-.146-.555a3.484,3.484,0,0,1-.152-.779c0-.121.039-.182.118-.176s.136.1.191.3a2.35,2.35,0,0,0,.885,1.271,2.376,2.376,0,0,0,1.468.512,1.976,1.976,0,0,0,1.362-.494,1.556,1.556,0,0,0,.558-1.2,1.474,1.474,0,0,0-.512-1.14,5.769,5.769,0,0,0-1.516-.676,4.784,4.784,0,0,1-1.835-1.01,1.97,1.97,0,0,1-.54-1.437,2.042,2.042,0,0,1,.7-1.607,2.628,2.628,0,0,1,1.813-.622Z" transform="translate(-495.325 -364.952)" fill="#fff"/>
      <path id="Path_88" data-name="Path 88" d="M715.4,402.741a5.081,5.081,0,0,0,2.529,1.522.663.663,0,0,0,.221-.042.893.893,0,0,1,.2-.055q.1,0,.1.091c0,.1-.127.2-.382.294a2.2,2.2,0,0,1-.785.146,2.422,2.422,0,0,1-1.064-.23,8.655,8.655,0,0,1-1.392-.961,3.967,3.967,0,0,1-2.717,1.195,3.447,3.447,0,0,1-2.411-.87,2.849,2.849,0,0,1-.955-2.2,2.577,2.577,0,0,1,.737-1.859,2.269,2.269,0,0,1,1.134-.609,2.317,2.317,0,0,1-.519-1.377,1.463,1.463,0,0,1,.522-1.17A2.048,2.048,0,0,1,712,396.17a2.477,2.477,0,0,1,.907.188l.276.109.058.012a.272.272,0,0,0,.121-.067.167.167,0,0,1,.1-.049c.106,0,.158.143.158.437l.018.334.03.479c0,.1.006.164.006.188,0,.088-.042.133-.127.133-.052,0-.091-.049-.121-.146a1.869,1.869,0,0,0-.667-.885,1.621,1.621,0,0,0-.989-.388,1.018,1.018,0,0,0-.7.261.818.818,0,0,0-.291.634,1.565,1.565,0,0,0,.273.791,7.956,7.956,0,0,0,.928,1.149l1.471,1.583q.573.614,1.622,1.553a2.366,2.366,0,0,0,.3-1.186,1.628,1.628,0,0,0-.182-.807.715.715,0,0,0-.491-.385l-.276-.055c-.118-.024-.173-.079-.17-.161,0-.055.045-.082.13-.082a1.118,1.118,0,0,1,.158.018c.118.015.455.024,1.013.024a4.626,4.626,0,0,0,.485-.024c.136-.012.234-.018.294-.018s.106.03.112.094-.049.115-.158.155a.444.444,0,0,0-.261.246,2.28,2.28,0,0,0-.109.622,4.509,4.509,0,0,1-.513,1.813Zm-.928.47c-.124-.115-.2-.188-.24-.224l-.561-.494c-.315-.285-.731-.7-1.246-1.252s-.922-1.013-1.219-1.386c-.243-.3-.446-.452-.613-.452a1.035,1.035,0,0,0-.773.491,1.917,1.917,0,0,0-.394,1.228,2.638,2.638,0,0,0,.676,1.71,2.948,2.948,0,0,0,2.368,1.113A2.847,2.847,0,0,0,714.475,403.211Z" transform="translate(-516.133 -365.043)" fill="#fff"/>
      <path id="Path_89" data-name="Path 89" d="M754.516,396.04a2.675,2.675,0,0,1,1.058.188l.4.176a.27.27,0,0,0,.106.024.219.219,0,0,0,.139-.061l.082-.073a.078.078,0,0,1,.064-.024c.1,0,.146.1.146.3,0,.07.024.273.076.616l.094.628c.018.133.03.218.03.249,0,.127-.042.188-.124.188-.064,0-.127-.1-.191-.294a2.036,2.036,0,0,0-.852-1.089,2.534,2.534,0,0,0-1.437-.428,1.5,1.5,0,0,0-1.052.388,1.257,1.257,0,0,0-.422.967,1.457,1.457,0,0,0,.273.885,1.573,1.573,0,0,0,.522.464,13.77,13.77,0,0,0,1.392.531q2.161.737,2.159,2.417a2.4,2.4,0,0,1-.794,1.862,2.917,2.917,0,0,1-2.041.725,4.222,4.222,0,0,1-.992-.133,2.468,2.468,0,0,1-.791-.309.365.365,0,0,1-.14-.155,3.168,3.168,0,0,1-.106-.425q-.014-.05-.146-.555a3.484,3.484,0,0,1-.152-.779c0-.121.039-.182.118-.176s.136.1.191.3a2.35,2.35,0,0,0,.885,1.271,2.376,2.376,0,0,0,1.468.512,1.976,1.976,0,0,0,1.362-.494,1.556,1.556,0,0,0,.558-1.2,1.474,1.474,0,0,0-.512-1.14,5.769,5.769,0,0,0-1.516-.676,4.784,4.784,0,0,1-1.835-1.01,1.971,1.971,0,0,1-.54-1.437,2.042,2.042,0,0,1,.7-1.607,2.634,2.634,0,0,1,1.813-.622Z" transform="translate(-546.122 -364.952)" fill="#fff"/>
      <path id="Path_90" data-name="Path 90" d="M773.969,397.356v5.085l-.006.591.018.512c.042.491.218.779.525.861a1.972,1.972,0,0,0,.485.091c.118,0,.176.036.182.106.009.1-.061.155-.2.155-.067,0-.2-.009-.391-.024-.124-.009-.328-.012-.607-.012l-.415-.012-.455.006a4.358,4.358,0,0,0-.522.024,2.629,2.629,0,0,1-.334.03c-.1,0-.152-.039-.152-.118s.064-.124.194-.143a.754.754,0,0,0,.622-.537,5.587,5.587,0,0,0,.167-1.668v-3.7a5.307,5.307,0,0,0-.146-1.616c-.1-.224-.34-.361-.731-.4-.106-.009-.155-.052-.152-.124,0-.1.079-.143.227-.143a1.84,1.84,0,0,1,.3.03,4.31,4.31,0,0,0,.606.055c.249,0,.613-.021,1.086-.067.246-.021.446-.03.6-.03a3.062,3.062,0,0,1,1.983.613,1.953,1.953,0,0,1,.761,1.6,2.213,2.213,0,0,1-.934,1.883,2.483,2.483,0,0,1-1.483.512,2.633,2.633,0,0,1-.676-.082c-.206-.055-.3-.115-.294-.179.009-.049.045-.073.112-.073a.468.468,0,0,1,.115.018,1.6,1.6,0,0,0,.431.042,1.861,1.861,0,0,0,1.343-.482,1.69,1.69,0,0,0,.5-1.283,1.978,1.978,0,0,0-.664-1.528,2.407,2.407,0,0,0-1.686-.606.443.443,0,0,0-.321.091.514.514,0,0,0-.088.349Z" transform="translate(-560.204 -365.14)" fill="#fff"/>
      <path id="Path_91" data-name="Path 91" d="M794.776,398.176v4.57a4.037,4.037,0,0,0,.1,1.131.956.956,0,0,0,.288.44,1.227,1.227,0,0,0,.54.182c.194.027.291.079.291.149,0,.1-.061.143-.182.143a1.338,1.338,0,0,1-.221-.021,4.772,4.772,0,0,0-.619-.027l-.846-.012-.688.042a2.7,2.7,0,0,1-.279.018c-.106,0-.158-.042-.158-.124s.061-.118.182-.136a.746.746,0,0,0,.573-.321,2.578,2.578,0,0,0,.127-1.016v-5.225a2.1,2.1,0,0,0-.167-1.019,1,1,0,0,0-.71-.355c-.121-.024-.182-.073-.188-.143,0-.088.052-.13.17-.13.03,0,.067,0,.106.006a9.337,9.337,0,0,0,1.134.055c.288,0,.537-.006.743-.021l.391-.033c.073,0,.121-.006.146-.006.106,0,.158.036.158.112s-.052.124-.152.161l-.3.121C794.921,396.832,794.776,397.318,794.776,398.176Z" transform="translate(-574.667 -365.147)" fill="#fff"/>
      <path id="Path_92" data-name="Path 92" d="M809.719,400.562l1.613,2.48.188.291q.746,1.142,1.38,1.186l.188.012c.07,0,.1.033.1.088s-.091.118-.261.167a2.088,2.088,0,0,1-.576.076,1.574,1.574,0,0,1-.943-.3,3.523,3.523,0,0,1-.849-.986l-1.456-2.317-.082-.133a.482.482,0,0,0-.455-.249h-.776l-.127.024c-.045.027-.07.094-.07.2v1.907l.006.246a3.391,3.391,0,0,0,.049.719.673.673,0,0,0,.237.346,1.442,1.442,0,0,0,.776.264c.139.015.212.061.215.136s-.058.118-.194.118q-.082,0-.346-.027a7.252,7.252,0,0,0-.743-.027l-.561-.006-.3.006a4.305,4.305,0,0,0-.479.03c-.152.015-.258.024-.315.024-.1,0-.146-.042-.146-.124q0-.091.146-.118a.762.762,0,0,0,.613-.443,4.247,4.247,0,0,0,.146-1.383v-4.382l-.012-.634c0-.634-.212-.989-.637-1.061l-.276-.042c-.124-.024-.188-.073-.188-.143s.067-.124.2-.124c.03,0,.167.009.409.024.139.012.312.018.522.018.179,0,.485-.015.919-.042.312-.021.585-.03.825-.03a3.292,3.292,0,0,1,2.029.528,1.864,1.864,0,0,1,.682,1.571,2.323,2.323,0,0,1-1.446,2.114Zm-1.716-.13h.661a1.52,1.52,0,0,0,1.647-1.644,1.936,1.936,0,0,0-.6-1.459,2.107,2.107,0,0,0-1.522-.57.722.722,0,0,0-.476.118.567.567,0,0,0-.13.431l.006.2v2.484a.588.588,0,0,0,.073.364A.533.533,0,0,0,808,400.432Z" transform="translate(-583.543 -365.168)" fill="#fff"/>
      <path id="Path_93" data-name="Path 93" d="M833.6,398.176v4.57a4.036,4.036,0,0,0,.1,1.131.956.956,0,0,0,.288.44,1.227,1.227,0,0,0,.54.182c.194.027.291.079.291.149,0,.1-.061.143-.182.143a1.338,1.338,0,0,1-.221-.021,4.771,4.771,0,0,0-.619-.027l-.846-.012-.688.042a2.7,2.7,0,0,1-.282.018c-.106,0-.158-.042-.158-.124s.061-.118.182-.136a.746.746,0,0,0,.573-.321,2.578,2.578,0,0,0,.127-1.016v-5.225a2.1,2.1,0,0,0-.167-1.019,1,1,0,0,0-.71-.355c-.121-.024-.182-.073-.188-.143,0-.088.052-.13.17-.13.03,0,.067,0,.106.006a9.337,9.337,0,0,0,1.134.055c.288,0,.537-.006.743-.021l.391-.033c.073,0,.121-.006.146-.006.106,0,.158.036.158.112s-.052.124-.152.161l-.3.121c-.291.118-.434.6-.434,1.462Z" transform="translate(-601.691 -365.147)" fill="#fff"/>
      <path id="Path_94" data-name="Path 94" d="M849.208,397.207h-1.644a.474.474,0,0,0-.324.073.6.6,0,0,0-.067.361v5.983l.006.237a.83.83,0,0,0,.764.849c.136.024.2.07.2.136,0,.088-.055.13-.164.13a2.272,2.272,0,0,1-.288-.036,4.427,4.427,0,0,0-.528-.018l-.428-.006-.458.006a3.983,3.983,0,0,0-.415.018c-.221.024-.355.036-.391.036-.118,0-.176-.042-.176-.13,0-.064.064-.1.194-.118a.894.894,0,0,0,.607-.261,1.182,1.182,0,0,0,.158-.713V397.7l-.006-.158a.446.446,0,0,0-.061-.282.44.44,0,0,0-.282-.061h-1.55a.989.989,0,0,0-.685.2,1.439,1.439,0,0,0-.331.746c-.036.158-.088.237-.158.23s-.106-.058-.106-.164a2.939,2.939,0,0,1,.07-.467,3.9,3.9,0,0,0,.088-.722.74.74,0,0,1,.061-.367.3.3,0,0,1,.261-.088h6.292c.215,0,.343.024.388.073a.786.786,0,0,1,.067.431,3.059,3.059,0,0,0,.03.522c.018.136.03.237.036.3,0,.121-.036.185-.121.194-.07,0-.118-.058-.139-.188a.923.923,0,0,0-.246-.564A1.154,1.154,0,0,0,849.208,397.207Z" transform="translate(-609.649 -365.321)" fill="#fff"/>
      <path id="Path_95" data-name="Path 95" d="M875.264,401.156V398a2.2,2.2,0,0,0-.209-1.1.876.876,0,0,0-.713-.394c-.112-.012-.17-.055-.17-.13s.039-.127.115-.124a3.308,3.308,0,0,1,.373.048,3.335,3.335,0,0,0,.531.036c.437,0,.7-.006.8-.018.136-.012.221-.018.258-.018a.1.1,0,0,1,.112.106c0,.061-.039.106-.121.143a.779.779,0,0,0-.461.428,3.362,3.362,0,0,0-.106,1.037v3.014a4.377,4.377,0,0,1-.637,2.559,2.744,2.744,0,0,1-1.155.9,4.067,4.067,0,0,1-3.393-.064,2.561,2.561,0,0,1-1.161-1.092,4.455,4.455,0,0,1-.415-2.065v-3.1l-.012-.349a1.662,1.662,0,0,0-.173-.9.99.99,0,0,0-.691-.324c-.106-.015-.158-.058-.158-.124,0-.094.073-.143.221-.143.1,0,.23,0,.4.012s.309.018.391.018l.449-.006h.443c.046,0,.155-.009.328-.024.143-.012.243-.018.3-.018.088,0,.133.03.133.094s-.064.124-.188.149a.618.618,0,0,0-.452.306,2.024,2.024,0,0,0-.115.819l.012.4v3.069a4.043,4.043,0,0,0,.467,2.241,2.505,2.505,0,0,0,2.217.949,2.611,2.611,0,0,0,2.083-.794,3.538,3.538,0,0,0,.694-2.393Z" transform="translate(-626.81 -365.098)" fill="#fff"/>
      <path id="Path_96" data-name="Path 96" d="M901.085,397.319v2.459a.668.668,0,0,0,.049.34c.033.039.133.058.3.058h.9a5.072,5.072,0,0,0,.97-.073.785.785,0,0,0,.409-.176,1.253,1.253,0,0,0,.17-.512c.021-.1.07-.152.149-.146s.112.058.112.164c0,.027,0,.073-.006.133-.033.394-.052.752-.052,1.077,0,.249.012.491.036.737a1.662,1.662,0,0,1,.012.176c0,.1-.036.152-.112.152a.14.14,0,0,1-.149-.133l-.036-.17a.806.806,0,0,0-.279-.555,1.3,1.3,0,0,0-.713-.146h-1.289a.814.814,0,0,0-.382.061.268.268,0,0,0-.1.246l.006.2v2.247c0,.346.061.561.179.646a1.9,1.9,0,0,0,.9.127q2.292,0,2.947-1.08c.042-.07.088-.106.13-.109.073,0,.109.048.109.158a1.636,1.636,0,0,1-.428.94,1.585,1.585,0,0,1-1.3.655c-.112,0-.264-.009-.455-.024q-1.114-.109-1.847-.109a9.733,9.733,0,0,0-1.443.073,2.107,2.107,0,0,1-.3.042c-.124,0-.188-.042-.188-.13,0-.067.052-.115.152-.143l.221-.067c.279-.082.422-.367.422-.855l.006-.4v-5.158a2.487,2.487,0,0,0-.185-1.174.772.772,0,0,0-.716-.3c-.112,0-.17-.039-.17-.112,0-.112.088-.167.264-.167a3.153,3.153,0,0,1,.391.03,18.04,18.04,0,0,0,2.01.1c.476,0,.895-.009,1.261-.024l.831-.042c.23-.009.37-.015.422-.024a1.887,1.887,0,0,1,.234-.024c.127,0,.194.058.194.176a.7.7,0,0,1-.018.139c-.012.058-.027.218-.045.485l-.024.358a2.5,2.5,0,0,1-.061.44.135.135,0,0,1-.13.094c-.076,0-.112-.058-.112-.182v-.158a1,1,0,0,0-.07-.37.624.624,0,0,0-.449-.367,5.6,5.6,0,0,0-1.243-.091h-.916a.762.762,0,0,0-.467.094.574.574,0,0,0-.106.418Z" transform="translate(-648.577 -365.112)" fill="#fff"/>
      <path id="Path_97" data-name="Path 97" d="M928.914,401.156V398a2.2,2.2,0,0,0-.209-1.1.876.876,0,0,0-.713-.394c-.112-.012-.17-.055-.17-.13s.039-.127.115-.124a3.309,3.309,0,0,1,.373.048,3.335,3.335,0,0,0,.531.036c.437,0,.7-.006.8-.018.136-.012.221-.018.258-.018a.1.1,0,0,1,.112.106c0,.061-.042.106-.121.143a.779.779,0,0,0-.461.428,3.362,3.362,0,0,0-.106,1.037v3.014a4.377,4.377,0,0,1-.637,2.559,2.744,2.744,0,0,1-1.155.9,4.067,4.067,0,0,1-3.393-.064,2.56,2.56,0,0,1-1.161-1.092,4.454,4.454,0,0,1-.415-2.065v-3.1l-.012-.349a1.662,1.662,0,0,0-.173-.9.99.99,0,0,0-.691-.324c-.106-.015-.158-.058-.158-.124,0-.094.073-.143.221-.143.1,0,.23,0,.4.012s.309.018.391.018l.449-.006h.443c.045,0,.155-.009.327-.024.143-.012.243-.018.3-.018.088,0,.133.03.133.094s-.064.124-.188.149a.618.618,0,0,0-.452.306,2.024,2.024,0,0,0-.115.819l.012.4v3.069a4.044,4.044,0,0,0,.467,2.241,2.505,2.505,0,0,0,2.217.949,2.611,2.611,0,0,0,2.083-.794,3.538,3.538,0,0,0,.694-2.393Z" transform="translate(-664.191 -365.098)" fill="#fff"/>
      <path id="Path_98" data-name="Path 98" d="M955.345,400.552l1.5,2.353a11.886,11.886,0,0,0,.931,1.316,1.1,1.1,0,0,0,.643.34c.136.027.2.079.2.149s-.052.106-.158.106a1.747,1.747,0,0,1-.233-.021,6.515,6.515,0,0,0-.873-.039l-.3-.006-.758.061a1.757,1.757,0,0,1-.24.024c-.1,0-.152-.036-.152-.106s.067-.13.2-.167a.38.38,0,0,0,.327-.379,1.078,1.078,0,0,0-.209-.506l-1.534-2.4q-.1-.164-.146-.164c-.036,0-.121.109-.258.324-.349.549-.549.855-.594.922l-.582.867a2.175,2.175,0,0,0-.449.952q-.018.337.282.373l.3.036c.1.012.146.061.146.149,0,.073-.046.106-.14.106a1.747,1.747,0,0,1-.246-.024,4.5,4.5,0,0,0-.728-.055c-.288,0-.6.015-.943.046q-.159.018-.227.018-.186,0-.2-.109c0-.064.045-.109.146-.133a1.645,1.645,0,0,0,.637-.309,3.707,3.707,0,0,0,.6-.731c.237-.352.44-.646.6-.882q.741-1.06.888-1.277c.146-.224.234-.358.27-.406a.7.7,0,0,0,.158-.328.618.618,0,0,0-.106-.249l-.118-.2-1.286-1.983a8.462,8.462,0,0,0-.934-1.292,1.292,1.292,0,0,0-.74-.321c-.155-.021-.233-.067-.233-.143s.07-.118.209-.118c.285,0,.719.021,1.3.067.124.012.224.018.3.018.046,0,.264-.015.646-.049.073-.006.149-.012.221-.012.124,0,.188.042.188.13,0,.064-.064.106-.188.124q-.327.055-.327.328a1.326,1.326,0,0,0,.258.585l1.368,2.138q.036.055.064.055c.024,0,.067-.049.133-.146l1.207-1.783.2-.273a.965.965,0,0,0,.215-.509.329.329,0,0,0-.264-.352l-.2-.055c-.1-.03-.152-.082-.152-.158s.042-.091.13-.088l.227.015c.167.018.458.027.867.027a6.114,6.114,0,0,0,.634-.033c.112-.012.206-.018.276-.021.1,0,.152.027.152.1s-.052.139-.152.179l-.285.115a2.372,2.372,0,0,0-.934.91l-1.534,2.223a.817.817,0,0,0-.176.355.331.331,0,0,0,.064.182Z" transform="translate(-684.585 -365.161)" fill="#fff"/>
    </g>
    <path id="Path_99" data-name="Path 99" d="M487.531,178.9c-6.341,0-11.481,5.7-11.481,12.733,0,.033,0,.067,0,.1a11,11,0,1,1,10.986,11.6,11.127,11.127,0,0,1-10.756-9.152c1.064,5.81,5.7,10.183,11.25,10.183,6.341,0,11.481-5.7,11.481-12.733S493.871,178.9,487.531,178.9Z" transform="translate(-329.334 -119.793)" fill="#fff"/>
    <path id="Path_100" data-name="Path 100" d="M510.511,245.654a1.41,1.41,0,0,0,1.331-1.474v-.012a1.331,1.331,0,1,1-.027-.279,1.375,1.375,0,0,0-1.3-1.18,1.48,1.48,0,0,0,0,2.944Z" transform="translate(-352.417 -164.238)" fill="#fff"/>
    <path id="Path_101" data-name="Path 101" d="M513.91,177.929s26.558-4.919,19.786,18.8c0,0,4.412-19.6-15.671-17.93Z" transform="translate(-355.693 -118.83)" fill="#fff"/>
    <path id="Path_102" data-name="Path 102" d="M543.79,181.25s8.294,4.124,6.7,15.868c0,0,3.424-11.741-3.8-15.392Z" transform="translate(-376.508 -121.439)" fill="#fff"/>
    <path id="Path_103" data-name="Path 103" d="M552.594,197.431H543.8c0-.161,0-.321,0-.482a2.286,2.286,0,0,1,.058-.358C544.385,195.833,552.536,196.406,552.594,197.431Z" transform="translate(-376.513 -131.891)" fill="#fff"/>
    <path id="Path_104" data-name="Path 104" d="M557.324,210.391h-8.791c0-.161,0-.321,0-.482a2.286,2.286,0,0,1,.058-.358C549.112,208.793,557.266,209.366,557.324,210.391Z" transform="translate(-379.806 -140.913)" fill="#fff"/>
    <path id="Path_105" data-name="Path 105" d="M372.041,178.24c-6.341,0-11.481,5.7-11.481,12.733,0,.033,0,.067,0,.1a11,11,0,1,1,10.986,11.6,11.127,11.127,0,0,1-10.756-9.152c1.064,5.81,5.7,10.183,11.25,10.183,6.341,0,11.481-5.7,11.481-12.733S378.381,178.24,372.041,178.24Z" transform="translate(-248.936 -119.334)" fill="#fff"/>
    <path id="Path_106" data-name="Path 106" d="M395.021,245a1.41,1.41,0,0,0,1.331-1.474v-.012a1.331,1.331,0,1,1-.027-.279,1.375,1.375,0,0,0-1.3-1.18,1.48,1.48,0,0,0,0,2.944Z" transform="translate(-272.015 -163.786)" fill="#fff"/>
    <path id="Path_107" data-name="Path 107" d="M398.42,177.269s26.558-4.919,19.786,18.8c0,0,4.412-19.6-15.671-17.93Z" transform="translate(-275.294 -118.371)" fill="#fff"/>
    <path id="Path_108" data-name="Path 108" d="M428.3,180.6s8.294,4.124,6.7,15.868c0,0,3.424-11.741-3.8-15.392Z" transform="translate(-296.106 -120.987)" fill="#fff"/>
    <path id="Path_109" data-name="Path 109" d="M437.1,196.771h-8.791c0-.161,0-.321,0-.482a2.286,2.286,0,0,1,.058-.358C428.892,195.173,437.043,195.746,437.1,196.771Z" transform="translate(-296.112 -131.431)" fill="#fff"/>
    <path id="Path_110" data-name="Path 110" d="M441.824,209.741h-8.791c0-.161,0-.321,0-.482a2.293,2.293,0,0,1,.058-.358C433.615,208.143,441.766,208.716,441.824,209.741Z" transform="translate(-299.398 -140.461)" fill="#fff"/>
    <path id="Path_111" data-name="Path 111" d="M435.091,92.87c-6.341,0-11.481,5.7-11.481,12.733,0,.033,0,.067,0,.1a11,11,0,1,1,10.986,11.6,11.127,11.127,0,0,1-10.756-9.152c1.064,5.81,5.7,10.183,11.25,10.183,6.341,0,11.481-5.7,11.481-12.733S441.431,92.87,435.091,92.87Z" transform="translate(-292.828 -59.912)" fill="#fff"/>
    <path id="Path_112" data-name="Path 112" d="M458.071,159.624a1.41,1.41,0,0,0,1.331-1.474v-.012a1.331,1.331,0,1,1-.027-.279,1.375,1.375,0,0,0-1.3-1.18,1.48,1.48,0,0,0,0,2.944Z" transform="translate(-315.909 -104.346)" fill="#fff"/>
    <path id="Path_113" data-name="Path 113" d="M461.47,91.9s26.558-4.919,19.786,18.8c0,0,4.412-19.6-15.671-17.93Z" transform="translate(-319.186 -58.945)" fill="#fff"/>
    <path id="Path_114" data-name="Path 114" d="M491.35,95.22s8.294,4.124,6.7,15.868c0,0,3.424-11.741-3.8-15.392Z" transform="translate(-340 -61.553)" fill="#fff"/>
    <path id="Path_115" data-name="Path 115" d="M500.154,111.4h-8.791c0-.161,0-.321,0-.482a2.286,2.286,0,0,1,.058-.358C491.942,109.8,500.093,110.372,500.154,111.4Z" transform="translate(-340.006 -71.996)" fill="#fff"/>
    <path id="Path_116" data-name="Path 116" d="M504.884,124.361h-8.791c0-.161,0-.321,0-.482a2.286,2.286,0,0,1,.058-.358C496.672,122.763,504.823,123.336,504.884,124.361Z" transform="translate(-343.299 -81.02)" fill="#fff"/>
    <path id="Path_117" data-name="Path 117" d="M603.371,178.94c-6.341,0-11.481,5.7-11.481,12.733,0,.033,0,.067,0,.1a11,11,0,1,1,10.986,11.6,11.127,11.127,0,0,1-10.756-9.152c1.064,5.81,5.7,10.183,11.25,10.183,6.341,0,11.481-5.7,11.481-12.733S609.708,178.94,603.371,178.94Z" transform="translate(-409.976 -119.821)" fill="#fff"/>
    <path id="Path_118" data-name="Path 118" d="M626.351,245.7a1.41,1.41,0,0,0,1.331-1.474v-.012a1.331,1.331,0,1,1-.027-.279,1.375,1.375,0,0,0-1.3-1.18,1.48,1.48,0,0,0,0,2.944Z" transform="translate(-433.064 -164.273)" fill="#fff"/>
    <path id="Path_119" data-name="Path 119" d="M629.75,177.969s26.558-4.919,19.786,18.8c0,0,4.412-19.6-15.671-17.93Z" transform="translate(-436.335 -118.858)" fill="#fff"/>
    <path id="Path_120" data-name="Path 120" d="M659.62,181.3s8.294,4.124,6.7,15.868c0,0,3.424-11.741-3.8-15.392Z" transform="translate(-457.146 -121.474)" fill="#fff"/>
    <path id="Path_121" data-name="Path 121" d="M668.424,197.471h-8.791c0-.161,0-.321,0-.482a2.286,2.286,0,0,1,.058-.358C660.215,195.873,668.366,196.446,668.424,197.471Z" transform="translate(-457.152 -131.919)" fill="#fff"/>
    <path id="Path_122" data-name="Path 122" d="M673.154,210.44h-8.791c0-.161,0-.321,0-.482a2.286,2.286,0,0,1,.058-.358C664.942,208.842,673.1,209.412,673.154,210.44Z" transform="translate(-460.444 -140.947)" fill="#fff"/>
    <path id="Path_123" data-name="Path 123" d="M552.9,93.57c-6.341,0-11.481,5.7-11.481,12.733,0,.033,0,.067,0,.1a11,11,0,1,1,10.986,11.6,11.127,11.127,0,0,1-10.756-9.152c1.064,5.81,5.7,10.183,11.25,10.183,6.341,0,11.481-5.7,11.481-12.733S559.241,93.57,552.9,93.57Z" transform="translate(-374.841 -60.399)" fill="#fff"/>
    <path id="Path_124" data-name="Path 124" d="M575.881,160.324a1.41,1.41,0,0,0,1.331-1.474v-.012a1.331,1.331,0,1,1-.027-.279,1.375,1.375,0,0,0-1.3-1.18,1.48,1.48,0,0,0,0,2.944Z" transform="translate(-397.927 -104.833)" fill="#fff"/>
    <path id="Path_125" data-name="Path 125" d="M579.28,92.6s26.558-4.919,19.786,18.8c0,0,4.412-19.6-15.671-17.93Z" transform="translate(-401.2 -59.432)" fill="#fff"/>
    <path id="Path_126" data-name="Path 126" d="M609.16,95.92s8.294,4.124,6.7,15.868c0,0,3.424-11.741-3.8-15.392Z" transform="translate(-422.017 -62.04)" fill="#fff"/>
    <path id="Path_127" data-name="Path 127" d="M617.954,112.091h-8.791c0-.161,0-.321,0-.482a2.286,2.286,0,0,1,.058-.358C609.745,110.493,617.9,111.066,617.954,112.091Z" transform="translate(-422.015 -72.478)" fill="#fff"/>
    <path id="Path_128" data-name="Path 128" d="M622.684,125.061h-8.791c0-.161,0-.321,0-.482a2.286,2.286,0,0,1,.058-.358C614.472,123.463,622.626,124.036,622.684,125.061Z" transform="translate(-425.308 -81.508)" fill="#fff"/>
    <path id="Path_129" data-name="Path 129" d="M501.891,8.19c-6.341,0-11.481,5.7-11.481,12.733,0,.033,0,.067,0,.1a11,11,0,1,1,21.973.1,11.253,11.253,0,0,1-10.986,11.5,11.127,11.127,0,0,1-10.756-9.152c1.064,5.81,5.7,10.183,11.25,10.183,6.341,0,11.481-5.7,11.481-12.733S508.231,8.19,501.891,8.19Z" transform="translate(-339.331 -0.971)" fill="#fff"/>
    <path id="Path_130" data-name="Path 130" d="M524.871,74.944a1.41,1.41,0,0,0,1.331-1.474v-.012a1.331,1.331,0,1,1-.027-.279,1.375,1.375,0,0,0-1.3-1.18,1.48,1.48,0,0,0,0,2.944Z" transform="translate(-362.415 -45.431)" fill="#fff"/>
    <path id="Path_131" data-name="Path 131" d="M528.27,7.219s26.558-4.919,19.786,18.8c0,0,4.412-19.6-15.671-17.93Z" transform="translate(-365.689 0)" fill="#fff"/>
    <path id="Path_132" data-name="Path 132" d="M558.15,10.54s8.294,4.124,6.7,15.868c0,0,3.424-11.741-3.8-15.392Z" transform="translate(-386.505 -2.608)" fill="#fff"/>
    <path id="Path_133" data-name="Path 133" d="M566.954,26.72h-8.791c0-.161,0-.321,0-.482a2.286,2.286,0,0,1,.058-.358C558.745,25.122,566.9,25.692,566.954,26.72Z" transform="translate(-386.51 -13.054)" fill="#fff"/>
    <path id="Path_134" data-name="Path 134" d="M571.684,39.681h-8.791c0-.161,0-.321,0-.482a2.286,2.286,0,0,1,.058-.358C563.472,38.083,571.626,38.656,571.684,39.681Z" transform="translate(-389.803 -22.085)" fill="#fff"/>
  </g>
</svg>
