<svg id="logo" xmlns="http://www.w3.org/2000/svg" width="230.418" height="34.992" viewBox="0 0 230.418 34.992">
  <path id="Path_1" data-name="Path 1" d="M514.677,78.567l-.1.228a10.813,10.813,0,0,1-9.925,6.475c-.145,0-.29,0-.434-.013a10.83,10.83,0,1,1,5.516-20.393c-.821,1.022-7.438,8.076-11.891,12.81l-.242.251,7.859-.023h.061L518.187,64.13,516.932,62.6a17.348,17.348,0,0,0-11.6-5.179c-.229-.013-.458-.013-.686-.013a17.009,17.009,0,0,0-.666,34.007c.229.013.458.013.687.013a17.033,17.033,0,0,0,14.112-7.463l.061-.1Z" transform="translate(-324.812 -56.438)" fill="#826a49"/>
  <path id="Path_2" data-name="Path 2" d="M155.921,59.993a16.861,16.861,0,0,0-11.746-5.406c-7.872-.325-14.331,4.277-16.889,11.992a23.111,23.111,0,0,0-.747,5.048v.06a10.763,10.763,0,1,1-21.513-.734,10.75,10.75,0,0,1,11.181-10.273,10.884,10.884,0,0,1,4.6,1.236c-.821,1.008-7.364,7.989-11.77,12.675l-.242.251,7.872-.023h.064l12.352-13.553.084-.1-1.242-1.514a17.092,17.092,0,0,0-11.494-5.118,16.918,16.918,0,0,0-12.147,4.458,16.7,16.7,0,0,0-5.432,11.69,16.917,16.917,0,0,0,33.8,1.407,10.7,10.7,0,0,0,.074-1.119,10.755,10.755,0,0,1,10.746-10.287c.145,0,.289,0,.434.013a10.711,10.711,0,0,1-.424,21.414c-.145,0-.289,0-.434-.013-3.113-.121-5.143-1.105-7.751-3.738a11.9,11.9,0,0,1-1.918-3.269l-.158-.422-.121.432a35.479,35.479,0,0,1-1.242,3.567c-.448,1.045-1.582,3.075-1.6,3.088l-.047.1.424.506A17.066,17.066,0,0,0,142.8,88.227c.229.013.458.013.687.013a16.894,16.894,0,0,0,16.889-16.159A16.563,16.563,0,0,0,155.921,59.993Z" transform="translate(-66.543 -54.524)" fill="#826a49"/>
  <path id="Path_3" data-name="Path 3" d="M22.694,77.857a11.537,11.537,0,0,0,4.83-4.119,10.937,10.937,0,0,0,1.858-6.27,11.381,11.381,0,0,0-.919-4.518,11.952,11.952,0,0,0-2.487-3.7,11.814,11.814,0,0,0-3.669-2.475,11.072,11.072,0,0,0-4.49-.914H2.88V80.346l6.627,8.289v-9.7c2,0,3.621.013,4.937.023L21.8,88.635h8.377L21.5,78.289A10.094,10.094,0,0,0,22.694,77.857Zm-4.9-5.479H9.51V61.614h8.283a4.577,4.577,0,0,1,1.955.445,5.42,5.42,0,0,1,1.605,1.189,5.806,5.806,0,0,1,1.074,1.7,5.088,5.088,0,0,1,.4,1.983A5.372,5.372,0,0,1,21.364,70.9,4.765,4.765,0,0,1,17.79,72.378Z" transform="translate(-2.88 -55.41)" fill="#826a49"/>
  <path id="Path_4" data-name="Path 4" d="M304.279,68.339l3.877,8.6H297.844l8.707-21.123h-7.1L285.94,88.608H293l2.487-5.818h15.055L313,88.608h7.061l-11-26.552Z" transform="translate(-190.892 -55.384)" fill="#826a49"/>
  <path id="Path_5" data-name="Path 5" d="M437.07,118.666l6.253,8.185h8.428L441.26,113.22Z" transform="translate(-291.245 -93.626)" fill="#826a49"/>
  <path id="Path_6" data-name="Path 6" d="M409.249,70.2V55.82H402.38V88.608h6.869V80.979L428.736,55.82h-8.428Z" transform="translate(-268.221 -55.384)" fill="#826a49"/>
  <path id="Path_7" data-name="Path 7" d="M627.238,65.847a16.445,16.445,0,0,0-8.778-8.731,15.983,15.983,0,0,0-6.4-1.286H597.95V88.615h6.593V61.547h7.532a9.32,9.32,0,0,1,3.84.817,9.714,9.714,0,0,1,3.15,2.247,10.571,10.571,0,0,1,2.114,3.4,11.355,11.355,0,0,1,.774,4.217,11.706,11.706,0,0,1-.774,4.263,10.685,10.685,0,0,1-2.114,3.4,9.585,9.585,0,0,1-3.15,2.224,9.464,9.464,0,0,1-3.84.794h-5.833l4.372,5.717h1.461a16.156,16.156,0,0,0,6.4-1.286,16.557,16.557,0,0,0,8.778-8.735,16.307,16.307,0,0,0-.013-12.757Z" transform="translate(-398.125 -55.39)" fill="#826a49"/>
</svg>
