<svg id="MDI_bell-outline" data-name="MDI / bell-outline" xmlns="http://www.w3.org/2000/svg" width="24" height="24" viewBox="0 0 24 24">
  <g id="Boundary" fill="#272034" stroke="rgba(0,0,0,0)" stroke-width="1" opacity="0">
    <rect width="24" height="24" stroke="none"/>
    <rect x="0.5" y="0.5" width="23" height="23" fill="none"/>
  </g>
  <path id="Path_bell-outline" data-name="Path / bell-outline" d="M10,21h4a2,2,0,0,1-4,0m11-2v1H3V19l2-2V11a6.96,6.96,0,0,1,5-6.7V4a2,2,0,0,1,4,0v.3A6.96,6.96,0,0,1,19,11v6l2,2m-4-8A5,5,0,0,0,7,11v7H17Z" fill="#272034"/>
</svg>
