<?xml version="1.0" encoding="utf-8"?>
<!-- Generator: Adobe Illustrator 26.1.0, SVG Export Plug-In . SVG Version: 6.00 Build 0)  -->
<svg version="1.1" id="person-circle" xmlns="http://www.w3.org/2000/svg" xmlns:xlink="http://www.w3.org/1999/xlink" x="0px"
	 y="0px" viewBox="0 0 36 36" style="enable-background:new 0 0 36 36;" xml:space="preserve">
<style type="text/css">
	.st0{fill:#FFFFFF;}
	.st1{fill-rule:evenodd;clip-rule:evenodd;fill:#56AA00;}
	.st2{fill-rule:evenodd;clip-rule:evenodd;fill:#FFFFFF;}
</style>
<path id="Path_14" class="st0" d="M30.3,27.8c-1.6-2.6-5.1-5.3-12.3-5.3S7.3,25.3,5.7,27.8c5.4,6.8,15.3,7.9,22.1,2.5
	C28.7,29.6,29.6,28.7,30.3,27.8L30.3,27.8z"/>
<path id="Path_15" class="st1" d="M18,20.2c3.7,0,6.8-3,6.8-6.8s-3-6.8-6.8-6.8s-6.8,3-6.8,6.8S14.3,20.2,18,20.2z"/>
<path id="Path_16" class="st2" d="M18,2.2C9.3,2.2,2.2,9.3,2.2,18S9.3,33.8,18,33.8S33.8,26.7,33.8,18S26.7,2.2,18,2.2z M0,18
	C0,8.1,8.1,0,18,0s18,8.1,18,18s-8.1,18-18,18S0,27.9,0,18z"/>
</svg>
