<svg id="search" xmlns="http://www.w3.org/2000/svg" width="21.781" height="21.78" viewBox="0 0 21.781 21.78">
  <path id="Path_9" data-name="Path 9" d="M23.219,23.217a1.3,1.3,0,0,1,1.844,0l5.017,5.017a1.3,1.3,0,1,1-1.842,1.844L23.22,25.061a1.3,1.3,0,0,1,0-1.844Z" transform="translate(-8.681 -8.68)" fill="#272034" fill-rule="evenodd"/>
  <path id="Path_10" data-name="Path 10" d="M9,16.615A7.615,7.615,0,1,0,1.385,9,7.615,7.615,0,0,0,9,16.615ZM18,9A9,9,0,1,1,9,0a9,9,0,0,1,9,9Z" transform="translate(0 0)" fill="#272034" fill-rule="evenodd"/>
</svg>
