<svg xmlns="http://www.w3.org/2000/svg" xmlns:xlink="http://www.w3.org/1999/xlink" width="77.558" height="86.66" viewBox="0 0 77.558 86.66">
  <defs>
    <clipPath id="clip-path">
      <rect id="Rectangle_65" data-name="Rectangle 65" width="77.558" height="86.66" fill="#ea5549"/>
    </clipPath>
  </defs>
  <g id="shield" clip-path="url(#clip-path)">
    <path id="Path_44" data-name="Path 44" d="M21.172,0c-.514,0-1.029,0-1.538.021H19.55a2.265,2.265,0,0,0-2.126,1.636c-.166.518-.349,1.031-.546,1.527a25.652,25.652,0,0,1-1.688,3.271c-.327.529-.677,1.054-1.04,1.56q-.075.106-.153.209l-.117.152c-.092.1-.184.221-.281.349-.079.1-.158.208-.239.3a24.455,24.455,0,0,1-2.613,2.662c-.2.182-.428.376-.691.584-.044.037-.1.084-.161.131l-.044.032-.1.071c-.512.384-1.016.734-1.532,1.062a25.646,25.646,0,0,1-3.456,1.852l-.023.01c-1.063.422-2.124.757-3.113,1.057A2.254,2.254,0,0,0,0,18.612V29.946c0,1.948,0,3.963.139,5.934A55.174,55.174,0,0,0,13.191,67.875,59.134,59.134,0,0,0,27.006,79.593l10.4,6.6c.05.033.09.058.13.084s.1.062.145.093a1.879,1.879,0,0,0,.84.265l.038,0a1.9,1.9,0,0,0,1.32-.267q2.346-1.491,4.7-2.978Q47,81.855,49.424,80.317l.7-.443c1.185-.749,2.411-1.523,3.573-2.334a55.547,55.547,0,0,0,8.923-7.7A55.918,55.918,0,0,0,74.557,50a57.372,57.372,0,0,0,3-18.865V18.621A2.259,2.259,0,0,0,75.931,16.5h0c-.983-.3-2.034-.63-3.057-1.035a25.371,25.371,0,0,1-3.064-1.586c-.609-.376-1.1-.7-1.56-1.03l-.2-.149-.158-.12c-.1-.093-.221-.183-.346-.279-.1-.081-.209-.161-.307-.243a26.308,26.308,0,0,1-2.666-2.6c-.2-.223-.4-.458-.588-.684-.052-.062-.105-.127-.158-.192L63.7,8.429c-.387-.518-.728-1.011-1.043-1.505a25.037,25.037,0,0,1-1.9-3.56q-.365-.912-.621-1.7A2.283,2.283,0,0,0,58.008.021H24.277c-.519,0-1.038-.005-1.558-.011S21.691,0,21.172,0M38.784,81.862,27.978,75.009c-.8-.512-1.517-.988-2.178-1.455-.427-.3-.853-.616-1.278-.928-.1-.077-.2-.152-.3-.227l-.2-.155-.075-.056,0,0-.223-.174a53.989,53.989,0,0,1-4.706-4.24,42.615,42.615,0,0,1-4.159-4.743l0,0-.148-.194c-.086-.115-.17-.23-.254-.345s-.161-.221-.244-.332c-.371-.509-.689-.961-.977-1.388-.7-1.031-1.311-2.005-1.874-2.977A53.932,53.932,0,0,1,8.3,51.674,54.053,54.053,0,0,1,4.837,39.005a70.844,70.844,0,0,1-.455-9.059V20.223l.411-.147a26.767,26.767,0,0,0,6.689-3.405,27.392,27.392,0,0,0,7.6-8.18A26.509,26.509,0,0,0,20.915,4.8l.157-.387H53.253c.524,0,1.049,0,1.574.01.4,0,.809.007,1.214.009h.412l.158.38a27.226,27.226,0,0,0,13.279,14.1,30.369,30.369,0,0,0,2.874,1.169l.414.146V31.948a55.757,55.757,0,0,1-.443,6.962,54.9,54.9,0,0,1-3.494,12.805,54.119,54.119,0,0,1-6.07,10.655c-.054.072-.1.139-.151.2-.092.125-.182.248-.276.368-.016.022-.042.056-.073.1l0,0c-.175.218-.351.438-.526.659s-.345.433-.517.648c-.668.8-1.358,1.587-2.058,2.344a53.9,53.9,0,0,1-4.518,4.318c-.363.312-.763.64-1.22,1l-.269.212h0l-.067.053c-.138.109-.364.287-.45.351-.838.631-1.713,1.246-2.593,1.824-.559.363-1.135.738-1.713,1.1q-3.067,1.941-6.142,3.9-1.412.9-2.822,1.789Z" fill="#ea5549"/>
    <path id="Path_45" data-name="Path 45" d="M83.359,121.38h-.052a1.978,1.978,0,0,0-1.438.609,2.251,2.251,0,0,0-.019,3.129l11.024,11.025a2.228,2.228,0,0,0,3.109,0l21.964-21.964a2.3,2.3,0,0,0,.629-1.652,1.977,1.977,0,0,0-.609-1.438,2.251,2.251,0,0,0-3.127-.021L94.43,131.479l-9.47-9.47a2.288,2.288,0,0,0-1.6-.63" transform="translate(-61.102 -83.081)" fill="#ea5549"/>
  </g>
</svg>
