<svg id="shield-account-outline" xmlns="http://www.w3.org/2000/svg" width="24" height="24" viewBox="0 0 24 24">
  <g id="Boundary" fill="#c96a00" stroke="rgba(0,0,0,0)" stroke-width="1" opacity="0">
    <rect width="24" height="24" stroke="none"/>
    <rect x="0.5" y="0.5" width="23" height="23" fill="none"/>
  </g>
  <path id="Path_shield-account-outline" data-name="Path / shield-account-outline" d="M12,1,3,5v6c0,5.55,3.84,10.74,9,12,5.16-1.26,9-6.45,9-12V5L12,1m0,2.18L19,6.3v4.92a10.278,10.278,0,0,1-1.35,4.95A10.936,10.936,0,0,0,12,14.5a10.936,10.936,0,0,0-5.65,1.67A10.278,10.278,0,0,1,5,11.22V6.3l7-3.12M12,6a3.5,3.5,0,1,0,3.5,3.5A3.5,3.5,0,0,0,12,6m0,2a1.5,1.5,0,1,1-1.5,1.5A1.5,1.5,0,0,1,12,8m0,8.5a8.459,8.459,0,0,1,4.53,1.34A9,9,0,0,1,12,21a9,9,0,0,1-4.53-3.16A8.486,8.486,0,0,1,12,16.5Z" fill="#c96a00"/>
</svg>
