<svg xmlns="http://www.w3.org/2000/svg" xmlns:xlink="http://www.w3.org/1999/xlink" width="44.506" height="33.317" viewBox="0 0 44.506 33.317">
  <defs>
    <clipPath id="clip-path">
      <rect id="Rectangle_78" data-name="Rectangle 78" width="44.506" height="33.317" fill="#272034"/>
    </clipPath>
  </defs>
  <g id="transactions" clip-path="url(#clip-path)">
    <path id="Path_980" data-name="Path 980" d="M419.283,319.791a1.477,1.477,0,1,1,1.478-1.477,1.479,1.479,0,0,1-1.478,1.477" transform="translate(-410.747 -290.68)" fill="#272034"/>
    <path id="Path_981" data-name="Path 981" d="M107.74,116.145h11.138a1.015,1.015,0,1,1,0,2.03H107.74a1.015,1.015,0,1,1,0-2.03" transform="translate(-84.198 -106.557)" fill="#272034"/>
    <path id="Path_982" data-name="Path 982" d="M77.413,165.328H88.551a1.015,1.015,0,1,1,0,2.03H77.413a1.015,1.015,0,0,1,0-2.031" transform="translate(-51.367 -151.68)" fill="#272034"/>
    <path id="Path_983" data-name="Path 983" d="M0,15.936,3.642,7.361A3.106,3.106,0,0,1,6.576,5.493H15.02V2.727A2.73,2.73,0,0,1,17.747,0H41.779a2.73,2.73,0,0,1,2.727,2.727v23.2a2.73,2.73,0,0,1-2.727,2.727H38.754a5.683,5.683,0,0,1-11.184,0H14.128a5.682,5.682,0,0,1-11.183,0H2.324a2.3,2.3,0,0,1-2.3-2.3V16.459a2.793,2.793,0,0,1,.051-.538ZM8.536,23.98a3.652,3.652,0,1,0,3.654,3.654A3.658,3.658,0,0,0,8.536,23.98m3.291-9.407V10.387H4.564L2.786,14.573ZM2.776,22.419H2.053V26.35a.27.27,0,0,0,.271.269h.623a5.682,5.682,0,0,1,11.183,0h.892V7.523H6.576a1.1,1.1,0,0,0-1.062.631l-.086.2h7.415a1.016,1.016,0,0,1,1.015,1.015v6.215A1.016,1.016,0,0,1,12.843,16.6H2.053v3.787h.723a1.015,1.015,0,1,1,0,2.03M33.162,23.98a3.654,3.654,0,1,0,3.654,3.654,3.658,3.658,0,0,0-3.654-3.654M17.049,2.726V26.619H27.57a5.683,5.683,0,0,1,11.184,0h3.025a.7.7,0,0,0,.7-.7V2.726a.7.7,0,0,0-.7-.7H17.746a.7.7,0,0,0-.7.7" fill="#272034"/>
    <path id="Path_984" data-name="Path 984" d="M55.4,67.976a1.016,1.016,0,0,1,1.015-1.015H67.558a1.015,1.015,0,1,1,0,2.03H56.42A1.016,1.016,0,0,1,55.4,67.976" transform="translate(-28.641 -61.433)" fill="#272034"/>
    <path id="Path_985" data-name="Path 985" d="M120.995,319.791a1.477,1.477,0,1,1,1.477-1.477,1.48,1.48,0,0,1-1.477,1.477" transform="translate(-87.833 -290.68)" fill="#272034"/>
  </g>
</svg>
