<svg xmlns="http://www.w3.org/2000/svg" xmlns:xlink="http://www.w3.org/1999/xlink" width="141.295" height="86.659" viewBox="0 0 141.295 86.659">
  <defs>
    <clipPath id="clip-path">
      <rect id="Rectangle_66" data-name="Rectangle 66" width="141.295" height="86.659" fill="#ea5549"/>
    </clipPath>
  </defs>
  <g id="users" clip-path="url(#clip-path)">
    <path id="Path_46" data-name="Path 46" d="M136.417,46.3A29.217,29.217,0,0,0,123.5,35.544l-1.41-.6,1.231-.913a18.873,18.873,0,1,0-22.5,0l1.232.914-1.411.6A28.985,28.985,0,0,0,85.151,51.191l-.331.8a29.43,29.43,0,0,0-3.132-1.567l-1.41-.6,1.231-.913A18.868,18.868,0,0,0,70.647,14.889,18.869,18.869,0,0,0,59.786,48.907l1.231.913-1.41.6a29.431,29.431,0,0,0-3.132,1.567l-.331-.8A28.983,28.983,0,0,0,40.651,35.544l-1.411-.6,1.231-.914a18.873,18.873,0,1,0-22.5,0l1.231.913-1.41.6A29.3,29.3,0,0,0,0,62.274V69.5a2.281,2.281,0,1,0,4.561,0V62.389a24.741,24.741,0,0,1,48.171-7.868l.008.024a29.3,29.3,0,0,0-10.93,22.608v7.226a2.281,2.281,0,1,0,4.561,0V77.268A24.837,24.837,0,0,1,56.529,57.36a25.1,25.1,0,0,1,14.118-4.735A25.093,25.093,0,0,1,84.765,57.36,24.836,24.836,0,0,1,94.922,77.268v7.111a2.281,2.281,0,0,0,4.561,0V77.153a29.3,29.3,0,0,0-10.93-22.608l.008-.024a24.741,24.741,0,0,1,48.171,7.868V69.5a2.281,2.281,0,1,0,4.561,0V62.274A29.212,29.212,0,0,0,136.417,46.3M29.3,33.244A14.312,14.312,0,0,1,19.183,8.813,14.311,14.311,0,0,1,39.422,29.052,14.214,14.214,0,0,1,29.3,33.244m31.224,10.37a14.309,14.309,0,1,1,10.121,4.193,14.217,14.217,0,0,1-10.121-4.193m41.345-14.563a14.309,14.309,0,1,1,10.119,4.193,14.216,14.216,0,0,1-10.119-4.193" fill="#ea5549"/>
  </g>
</svg>
