<?xml version="1.0" encoding="utf-8"?>
<!-- Generator: Adobe Illustrator 23.0.1, SVG Export Plug-In . SVG Version: 6.00 Build 0)  -->
<svg version="1.1" id="Layer_1" xmlns="http://www.w3.org/2000/svg" xmlns:xlink="http://www.w3.org/1999/xlink" x="0px" y="0px"
	 viewBox="0 0 18.1 30.5" style="enable-background:new 0 0 18.1 30.5;" xml:space="preserve">
<style type="text/css">
	.st0{fill:#EA5549;}
</style>
<g id="Vin" transform="translate(0 0)">
	<g>
		<g id="Group_27" transform="translate(0 0)">
			<path id="Path_32" class="st0" d="M18.1,15.3c0-1.4-1.1-2.6-2.5-2.8c0.2-0.4,0.4-0.9,0.4-1.4c0-1.5-1.2-2.8-2.8-2.8
				c-0.8,0-1.6,0.3-2.1,0.9c-0.4-0.4-0.8-0.7-1.3-0.8V2.8c0-0.7,0.6-1.3,1.4-1.3c0.7,0,1.3,0.6,1.3,1.3v2.1c0,0.4,0.3,0.7,0.7,0.7
				s0.7-0.3,0.7-0.7V2.8c0-1.6-1.3-2.8-2.9-2.8c-1.5,0-2.7,1.2-2.8,2.8v5.6C7.8,8.6,7.3,8.8,7,9.2C5.9,8.1,4.2,8,3,9
				c-1,0.9-1.2,2.3-0.6,3.5c-1.5,0.2-2.6,1.6-2.4,3.1c0.2,1.3,1.2,2.2,2.4,2.4c-0.2,0.4-0.4,0.9-0.4,1.4c0,1.4,1.1,2.6,2.5,2.8
				c-0.2,0.4-0.4,0.9-0.4,1.4c0,1.4,1.1,2.6,2.4,2.8c-0.2,0.4-0.4,0.9-0.4,1.4c0,1.6,1.3,2.8,2.9,2.8c1.5,0,2.7-1.2,2.8-2.8
				c0-0.5-0.1-1-0.4-1.4c1.4-0.2,2.4-1.4,2.5-2.8c0-0.5-0.1-1-0.4-1.4c1.5-0.2,2.6-1.6,2.4-3.1c0-0.4-0.2-0.7-0.4-1.1
				C17,17.9,18.1,16.7,18.1,15.3L18.1,15.3z M13.2,9.8c0.7,0,1.3,0.6,1.3,1.3s-0.6,1.3-1.3,1.3s-1.3-0.6-1.3-1.3c0,0,0,0,0,0
				C11.9,10.4,12.5,9.8,13.2,9.8 M11.1,13.9c0.7,0,1.3,0.6,1.3,1.3c0,0.7-0.6,1.3-1.3,1.3c-0.7,0-1.3-0.6-1.3-1.3
				C9.8,14.5,10.4,13.9,11.1,13.9 M10.4,19.4c0,0.7-0.6,1.3-1.3,1.3s-1.3-0.6-1.3-1.3c0-0.7,0.6-1.3,1.3-1.3h0
				C9.8,18.1,10.4,18.7,10.4,19.4 M9,9.8c0.7,0,1.3,0.6,1.3,1.3S9.8,12.5,9,12.5s-1.3-0.6-1.3-1.3c0,0,0,0,0,0
				C7.7,10.4,8.3,9.8,9,9.8 M8.3,15.3c0,0.7-0.6,1.3-1.3,1.3S5.6,16,5.6,15.3c0-0.7,0.6-1.3,1.3-1.3C7.7,13.9,8.3,14.5,8.3,15.3
				 M4.9,9.8c0.7,0,1.3,0.6,1.3,1.3s-0.6,1.3-1.3,1.3s-1.3-0.6-1.3-1.3c0,0,0,0,0,0C3.6,10.4,4.1,9.8,4.9,9.8 M1.5,15.3
				c0-0.7,0.6-1.3,1.3-1.3s1.3,0.6,1.3,1.3c0,0.7-0.6,1.3-1.3,1.3C2.1,16.6,1.5,16,1.5,15.3 M3.5,19.4c0-0.7,0.6-1.3,1.3-1.3
				s1.3,0.6,1.3,1.3s-0.6,1.3-1.3,1.3C4.1,20.8,3.5,20.2,3.5,19.4 M7,24.9c-0.7,0-1.3-0.6-1.3-1.3c0-0.7,0.6-1.3,1.3-1.3
				s1.3,0.6,1.3,1.3C8.3,24.3,7.7,24.9,7,24.9 M9,29.1c-0.7,0-1.3-0.6-1.3-1.3s0.6-1.3,1.3-1.3s1.3,0.6,1.3,1.3c0,0,0,0,0,0
				C10.4,28.5,9.8,29.1,9,29.1 M11.1,24.9c-0.7,0-1.3-0.6-1.3-1.3s0.6-1.3,1.3-1.3s1.3,0.6,1.3,1.3C12.5,24.3,11.9,24.9,11.1,24.9
				 M13.2,20.8c-0.7,0-1.3-0.6-1.3-1.3s0.6-1.3,1.3-1.3s1.3,0.6,1.3,1.3c0,0,0,0,0,0C14.5,20.2,13.9,20.8,13.2,20.8 M15.3,16.6
				c-0.7,0-1.3-0.6-1.3-1.3c0-0.7,0.6-1.3,1.3-1.3c0.7,0,1.3,0.6,1.3,1.3C16.6,16,16,16.6,15.3,16.6"/>
		</g>
	</g>
</g>
</svg>
