<svg xmlns="http://www.w3.org/2000/svg" width="300" height="164.322" viewBox="0 0 300 164.322">
  <path id="Path_3180" data-name="Path 3180" d="M377.038,81.177a82.175,82.175,0,0,0-57.247-26.349c-38.367-1.584-69.845,20.847-82.311,58.444-2.526,7.493-3.346,19.737-3.642,24.6v.294C232.657,167.21,208.25,190,179.3,188.824a52.351,52.351,0,0,1-50.308-54.232,52.39,52.39,0,0,1,54.491-50.069A53.045,53.045,0,0,1,205.9,90.547c-4,4.914-35.89,38.935-57.362,61.774l-1.181,1.224,38.367-.114h.312l60.2-66.051.41-.473L240.6,79.528A83.3,83.3,0,0,0,184.58,54.583a82.453,82.453,0,0,0-59.2,21.729,81.39,81.39,0,0,0-26.475,56.975c-1.821,45.2,33.659,83.454,79.08,85.266,45.305,1.812,83.722-33.434,85.674-78.41a52.2,52.2,0,0,0,.361-5.453A52.418,52.418,0,0,1,316.4,84.556c.705,0,1.411,0,2.116.065a52.2,52.2,0,0,1-2.067,104.367c-.705,0-1.411,0-2.116-.065-15.173-.588-25.064-5.387-37.776-18.219-5.118-5.159-9.3-15.819-9.35-15.933l-.771-2.057-.591,2.106a172.948,172.948,0,0,1-6.053,17.386c-2.182,5.093-7.709,14.986-7.775,15.052l-.23.473,2.067,2.465A83.172,83.172,0,0,0,313.1,218.781c1.115.065,2.231.065,3.346.065a82.338,82.338,0,0,0,82.311-78.752A80.722,80.722,0,0,0,377.038,81.177Z" transform="translate(-98.839 -54.524)" fill="#fff"/>
</svg>
